<svg id="Layer_1" data-name="Layer 1" xmlns="http://www.w3.org/2000/svg" viewBox="0 0 274.43 156.81"><defs><style>.cls-1{fill:#231f20;}</style></defs><title>Artboard 4</title><path class="cls-1" d="M215.59.27C186.37-1.4,150.7,4.81,115.14,17.75S48.26,48.87,26.94,68.93c-22.29,21-31.19,41.84-25,58.73s26.36,27.14,56.93,28.89c29.22,1.66,64.9-4.55,100.46-17.49s66.88-31.12,88.19-51.18c22.3-21,31.2-41.84,25-58.72S246.16,2,215.59.27ZM157.71,134.71C85.38,161,17.56,157.17,6.24,126.07s38.15-77.64,110.48-104S256.86-.36,268.18,30.74,230,108.39,157.71,134.71Z"/><path class="cls-1" d="M63,111.7l-18.48,6.73a1.42,1.42,0,0,1-1.82-.85l-3.06-8.4a.36.36,0,0,0-.46-.21l-8,2.93a.36.36,0,0,0-.22.46l3.55,9.75a9.26,9.26,0,0,0,11.87,5.54l19.85-7.22a.36.36,0,0,0,.21-.46l-2.93-8.06A.36.36,0,0,0,63,111.7Z"/><rect class="cls-1" x="27.78" y="96.42" width="30.73" height="9.29" rx="0.36" ry="0.36" transform="translate(-31.97 20.85) rotate(-20)"/><path class="cls-1" d="M214.3,56.63l-18.48,6.72A1.42,1.42,0,0,1,194,62.5l-3.06-8.39a.34.34,0,0,0-.45-.21l-8.06,2.93a.36.36,0,0,0-.22.46L185.77,67a9.25,9.25,0,0,0,11.87,5.54l19.84-7.23a.35.35,0,0,0,.21-.45l-2.93-8.06A.35.35,0,0,0,214.3,56.63Z"/><rect class="cls-1" x="179.09" y="41.35" width="30.73" height="9.29" rx="0.36" ry="0.36" transform="translate(-4 69.28) rotate(-20)"/><path class="cls-1" d="M93.19,100.71l-18.42,6.7a1.42,1.42,0,0,1-1.82-.85l-3.06-8.39a.34.34,0,0,0-.45-.21l-8.06,2.93a.34.34,0,0,0-.21.45l3.55,9.76a9.27,9.27,0,0,0,11.87,5.54l19.77-7.2a.36.36,0,0,0,.22-.46l-2.94-8.06A.35.35,0,0,0,93.19,100.71Z"/><path class="cls-1" d="M77.51,83.65,57.68,90.87a.36.36,0,0,0-.21.46l2.93,8.06a.36.36,0,0,0,.46.21l18.47-6.72a1.42,1.42,0,0,1,1.82.85l3.06,8.39a.34.34,0,0,0,.45.21l8.06-2.93a.34.34,0,0,0,.21-.45l-3.55-9.76A9.27,9.27,0,0,0,77.51,83.65Z"/><path class="cls-1" d="M168.25,50.63,148.08,58l3.18,8.73,18.8-6.85a1.43,1.43,0,0,1,1.82.86l6.71,18.42a.36.36,0,0,0,.46.21l8-2.93a.36.36,0,0,0,.22-.46l-7.2-19.78A9.26,9.26,0,0,0,168.25,50.63Z"/><path class="cls-1" d="M97.64,76.33l-9.75,3.55a.34.34,0,0,0-.21.45l2.93,8.06a.36.36,0,0,0,.46.22l8.38-3a1.42,1.42,0,0,1,1.82.85L105,96.77a8.93,8.93,0,0,0,11.45,5.34.36.36,0,0,0,.22-.46L109.5,81.87A9.25,9.25,0,0,0,97.64,76.33Z"/><path class="cls-1" d="M99.25,87.1l-7.72,2.81a.35.35,0,0,0-.21.46l6.59,18.12a.36.36,0,0,0,.46.22l8.06-2.94a.35.35,0,0,0,.21-.45l-6.47-17.79A.73.73,0,0,0,99.25,87.1Z"/><path class="cls-1" d="M139.55,72.44l-7.73,2.81a.35.35,0,0,0-.21.45l6.6,18.13a.35.35,0,0,0,.45.21l8.06-2.93a.35.35,0,0,0,.21-.46l-6.47-17.79A.7.7,0,0,0,139.55,72.44Z"/><path class="cls-1" d="M159.61,65.13,151.89,68a.35.35,0,0,0-.22.45l6.6,18.13a.36.36,0,0,0,.46.21l8.06-2.93a.36.36,0,0,0,.21-.46l-6.48-17.79A.71.71,0,0,0,159.61,65.13Z"/><path class="cls-1" d="M169.64,61.48l-7.72,2.81a.35.35,0,0,0-.21.46l2.93,8.06a.35.35,0,0,0,.45.21l8.06-2.93a.36.36,0,0,0,.22-.46l-2.82-7.72A.71.71,0,0,0,169.64,61.48Z"/><path class="cls-1" d="M244.58,45.4l-7.72,2.81a.36.36,0,0,0-.22.46l2.94,8a.35.35,0,0,0,.45.22L248.09,54a.34.34,0,0,0,.21-.45l-2.81-7.73A.7.7,0,0,0,244.58,45.4Z"/><rect class="cls-1" x="112.68" y="70.11" width="9.29" height="30.71" rx="0.36" ry="0.36" transform="translate(-22.16 45.28) rotate(-20)"/><rect class="cls-1" x="118.38" y="63.38" width="30.73" height="9.29" rx="0.36" ry="0.36" transform="translate(-15.2 49.85) rotate(-20)"/><path class="cls-1" d="M230.77,39.23,223,42.05a.35.35,0,0,0-.21.45l6.6,18.13a.35.35,0,0,0,.45.21l8.06-2.93a.37.37,0,0,0,.22-.46l-6.48-17.79A.71.71,0,0,0,230.77,39.23Z"/><rect class="cls-1" x="209.6" y="30.18" width="30.73" height="9.29" rx="0.36" ry="0.36" transform="translate(1.66 79.04) rotate(-20)"/></svg>