<svg id="Layer_1" data-name="Layer 1" xmlns="http://www.w3.org/2000/svg" viewBox="0 0 712.26 412.39"><defs><style>.cls-1{fill:#f4c6dd;}.cls-2{fill:#231f20;}.cls-3{fill:#fff;}</style></defs><title>Artboard 1</title><ellipse class="cls-1" cx="356.13" cy="206.2" rx="373.71" ry="172.17" transform="translate(-49.05 134.24) rotate(-20)"/><path class="cls-2" d="M249.26,355.3c-1.36.5-2.74,1-4.14,1.4-23,7.14-48.39,5.37-68-4.72a171.35,171.35,0,0,0-14.36,19.2c-2,3.05-2.82,4.3-4.6,5.28a7.11,7.11,0,0,1-1,.47l-.34.11a7.75,7.75,0,0,1-6.23-.74h0l-.37-.2h0l-.35-.19a3.94,3.94,0,0,1-.38-.2l-.37-.19s-.19-.09-.37-.2h0a3.93,3.93,0,0,1-.38-.21L148,375h0a3.54,3.54,0,0,1-.36-.19h0l-.39-.2-.36-.2a2,2,0,0,1-.37-.19s-.19-.09-.37-.2h0l-.39-.21h0a3.23,3.23,0,0,1-.37-.2,2.63,2.63,0,0,1-.36-.19h0a3.93,3.93,0,0,1-.38-.21s-.2-.09-.38-.2h0l-.36-.2-.36-.18h0a4.36,4.36,0,0,1-.4-.21l-.35-.19h0a2.25,2.25,0,0,1-.39-.2l-.38-.2h0a2.48,2.48,0,0,1-.37-.19h0a3.54,3.54,0,0,1-.39-.2l-.35-.19s-.2-.09-.39-.2h0a3.23,3.23,0,0,1-.37-.2h0a3.56,3.56,0,0,1-.39-.21h0l-.38-.2h0a2.52,2.52,0,0,1-.37-.2h0a3.23,3.23,0,0,1-.37-.2,3,3,0,0,1-.38-.2h0l-.35-.19h0a3.56,3.56,0,0,1-.39-.21h0l-.36-.19-.39-.21s-.19-.09-.36-.19c0,0-.2-.09-.39-.2h0l-.38-.2s-.18-.09-.36-.2h0l-.39-.2h0a3.54,3.54,0,0,1-.36-.19l-.38-.2a3.23,3.23,0,0,1-.37-.2h0l-.39-.21h0l-.35-.19a2.9,2.9,0,0,1-.38-.19l-.38-.2h0a2.3,2.3,0,0,1-.39-.21,7.4,7.4,0,0,1-3.24-3.13c-2.2-4-.7-8.3,6.45-18.3,2.78-3.89,6.29-8.42,9.79-12.62a63.46,63.46,0,0,1-9.9-13.37,73.62,73.62,0,0,1-6.15-15,43.24,43.24,0,0,1-18.17-5l-18.6-9.77a28.72,28.72,0,0,1-11.76-11.53c-6.6-12-6.55-25.11.14-38C86.17,228.88,96.3,219,109,211.94a91.55,91.55,0,0,1,12.75-5.76c1.5-.54,3-1.06,4.57-1.54,14-4.34,28.21-5.56,39.22-6.1a118.64,118.64,0,0,1,33.31-27.25,49.52,49.52,0,0,1,7-3.22c.52-.19,1-.36,1.55-.52,5.88-1.83,10.72-1.54,14.78.9,0,0,8,4.18,8.1,4.26a2.56,2.56,0,0,1,.41.21c.06,0,4.39,2.31,4.42,2.33h0a2.25,2.25,0,0,1,.39.2l5.25,2.76a14.62,14.62,0,0,1,5.75,5.86c5.19,9.38,2.54,20.08-3.64,34.13l3.46,1.82a8.64,8.64,0,0,1,3.89,3.51,7.89,7.89,0,0,1-3.13,10.76,11.18,11.18,0,0,1-1.22.56l-.37.12c-2.91.91-5.36-.1-7.15-.84-.72-.3-1.64-.68-2.89-1.12-15.77,29.74-47.05,50.9-65.12,61.24a51.92,51.92,0,0,0,1.59,11.46c9-7.6,18-14.09,25.14-18a94.63,94.63,0,0,1,13.35-6.09q1.95-.72,3.9-1.32c9.94-3.09,19.45-4,27.52-2.72-.68-2.26-.21-6.25,4.11-20.07,4.83-15.23,13.49-27.21,23.76-32.88a20.73,20.73,0,0,1,2.85-1.3l.85-.29a17.11,17.11,0,0,1,13.46,1.32l7.35,3.87c.72.3,1.92.95,4.2,2.21l0,0c.52.23,1.27.61,2.44,1.23l.26-1.22c3.28-15.72,7.32-27.23,16.4-32.23a14.64,14.64,0,0,1,2.18-1c.22-.08.43-.16.65-.22a12.54,12.54,0,0,1,9.88.9l6,3.13c3.8-11.16,7.62-17.34,12.26-19.9a12.9,12.9,0,0,1,1.9-.86l.58-.2a12.93,12.93,0,0,1,10.28,1.2l15.92,8.37.2-.88c1.67-7.06,4-18.61,5.7-30.4l-.17-.1h0s-1-.5-1.13-.6h0l-.39-.21h0l-.39-.21a7.82,7.82,0,0,1-3.4-3.37c-1.75-3.25-1.05-8.35,2.77-10.47l3.92-2.16.94-20.38a2.54,2.54,0,0,1,1.18-2L405.6,106.6l.32-.14a2.6,2.6,0,0,1,2.18.21l.61.34a2.38,2.38,0,0,1,.51.24l.6.35a2.24,2.24,0,0,1,.5.22l.68.39a3.36,3.36,0,0,1,.43.2l.06,0a2.11,2.11,0,0,1,.34.16l.33.2a2.74,2.74,0,0,1,.42.21h0l.34.17.4.24a2.23,2.23,0,0,1,.31.15,2.64,2.64,0,0,1,.38.18l.43.26a1.91,1.91,0,0,1,.32.16l.36.2a3.11,3.11,0,0,1,.41.2l.72.39a3.6,3.6,0,0,1,.39.2l.63.34a2.5,2.5,0,0,1,.5.23l.59.35a2.45,2.45,0,0,1,.52.24l.61.35a2.38,2.38,0,0,1,.51.24h0a2.49,2.49,0,0,1,.33.16l.35.21a2.06,2.06,0,0,1,.42.21l.35.17.35.21a2.67,2.67,0,0,1,.42.2h0l.35.17.37.23a3,3,0,0,1,.36.18l.35.2a3,3,0,0,1,.41.19l.72.4a3.49,3.49,0,0,1,.39.19l.71.39a2.53,2.53,0,0,1,.37.18l.76.4A2.53,2.53,0,0,1,428.3,119l-.43,6,.12.07.76.4s.18.08.35.18a4.64,4.64,0,0,1,.42.23h0a2.07,2.07,0,0,1,.37.2v0l.35.19h0a4.36,4.36,0,0,1,.4.21s.19.09.37.2l.37.19s.19.09.37.2h0a3.93,3.93,0,0,1,.38.21h0a2.07,2.07,0,0,1,.37.2h0l.38.2.37.2h0l.75.4s.57.29.72.38a3.1,3.1,0,0,1,.41.21h0a2,2,0,0,1,.38.2h0l.36.19s.19.09.37.2h0a3.93,3.93,0,0,1,.38.21h0a4.36,4.36,0,0,1,.4.21h0l.73.39a3.16,3.16,0,0,1,.37.19l.37.2s.19.09.36.19l.41.21.22.11c.55-.34,1.1-.66,1.64-1a17,17,0,0,1,2.43-1.11q.36-.13.72-.24a13.9,13.9,0,0,1,8.79.07,10.57,10.57,0,0,1,5-6.52l16.2-9.85.3-.13a2.65,2.65,0,0,1,2.19.22,3.33,3.33,0,0,1,.46.24l.34.19a1.91,1.91,0,0,1,.32.16,2.77,2.77,0,0,1,.48.26l.21.12a2.74,2.74,0,0,1,.42.21,2,2,0,0,1,.52.28l.18.1a2.3,2.3,0,0,1,.42.2,2.77,2.77,0,0,1,.48.26l.18.1a3.26,3.26,0,0,1,.53.26,2.16,2.16,0,0,1,.39.22l.23.11a2.51,2.51,0,0,1,.54.28,2.27,2.27,0,0,1,.34.19,1.34,1.34,0,0,1,.24.12,2.23,2.23,0,0,1,.57.3l.13.1a2,2,0,0,1,.46.22,2.47,2.47,0,0,1,.46.23l.33.19a2.49,2.49,0,0,1,.33.16,2.7,2.7,0,0,1,.5.27C490.1,107,496.52,99.44,504.9,94.81A29.77,29.77,0,0,1,509,92.93l1.12-.38c4.95-1.53,9.62-1.23,13.5.88l7.51,3.95c1-4.94,2.71-13.62,4.06-23l-.14-.08h0a2,2,0,0,1-.38-.2h0a3.56,3.56,0,0,1-.39-.21h0a2,2,0,0,1-.38-.2h0a3.54,3.54,0,0,1-.36-.19h0a2.15,2.15,0,0,1-.41-.21,7.7,7.7,0,0,1-3.43-3.42c-1.76-3.22-1.05-8.32,2.81-10.44l3.9-2.15.94-20.38a2.56,2.56,0,0,1,1.18-2l19.24-12.29.31-.13a2.64,2.64,0,0,1,2.2.2l.67.37a2,2,0,0,1,.44.21l.48.28.23.11.39.19,0,0a3,3,0,0,1,.36.18l.31.19a2.09,2.09,0,0,1,.4.19l0,0a2.21,2.21,0,0,1,.34.18l.33.19a2.49,2.49,0,0,1,.4.2l.82.43a1.74,1.74,0,0,1,.33.18l.23.14a2.27,2.27,0,0,1,.5.23l.61.35a2.38,2.38,0,0,1,.51.24l.4.23.32.16a1.93,1.93,0,0,1,.38.19l.65.36a2.65,2.65,0,0,1,.48.23l.47.27.19.1a2.68,2.68,0,0,1,.42.19l.5.3a1,1,0,0,1,.23.12,2,2,0,0,1,.42.2h0a2,2,0,0,1,.38.2l.29.17a2.93,2.93,0,0,1,.4.19l.05,0a1.91,1.91,0,0,1,.32.16l.35.21a2.09,2.09,0,0,1,.4.19l.3.18a3.82,3.82,0,0,1,.46.21l.43.24c.1,0,.4.21.4.21l.39.22a2.44,2.44,0,0,1,.28.14l.21.13a2.79,2.79,0,0,1,.53.24L578,32a2.75,2.75,0,0,1,.49.23l.51.3a1.27,1.27,0,0,1,.23.12,2.54,2.54,0,0,1,1.24,2.38L580.07,41s.35.18.53.29h0l.36.2.37.19.75.39h0l.38.2.35.19.41.21h0l.73.39.37.2.36.19h0a3.93,3.93,0,0,1,.38.21l.37.19s.56.28.74.39h0a2.29,2.29,0,0,1,.39.21l1.12.58.36.19.74.39h0l.39.21h0l.37.19.39.21h0s.2.1.38.21h0l.38.2h0l.35.19h0l.36.19.39.21.36.19h0a3.54,3.54,0,0,1,.39.2h0a3.31,3.31,0,0,1,.4.22l0,0,.34.18.36.19s.23.11.42.22h0s.7.37.7.37a2.73,2.73,0,0,1,.43.22h0a1.09,1.09,0,0,1,.27.14,7.64,7.64,0,0,1,3.44,3.26,7.91,7.91,0,0,1,.82,6.06A7.64,7.64,0,0,1,595.93,63l-17.88,9.87c-.19,3.79-.55,9-.94,14.55L577,88.55l.17.09.41.22h0A3.54,3.54,0,0,1,578,89h0a3.31,3.31,0,0,1,.4.22h0a2.48,2.48,0,0,1,.37.19h0s.6.31.76.41h0l.36.19h0a3,3,0,0,1,.41.21h0a2.48,2.48,0,0,1,.37.19h0a2.48,2.48,0,0,1,.37.19h0l.38.2h0l.38.2h0l.35.19a3.27,3.27,0,0,1,.4.21s.59.3.74.39h0l.39.21h0l.74.39h0l.39.22v0l.37.21a0,0,0,0,1,0,0l.36.2a2.73,2.73,0,0,1,.39.2h0l.39.21h0l.74.39s.19.09.36.19h0l.39.2h0a3,3,0,0,1,.38.2h0l.36.19h0a2,2,0,0,1,.43.23h0a3.54,3.54,0,0,1,.36.19h0l.35.18.34.18a4.74,4.74,0,0,1,.44.23s.59.3.75.4h0a3.93,3.93,0,0,1,.38.21h0l.35.19h0s.22.11.42.23l0,0,.37.2s.59.3.74.39h0l.37.2h0l.39.21h0l.39.21h0a3.23,3.23,0,0,1,.37.2h0l.39.21a7.83,7.83,0,0,1,3.38,3.35c1.88,3.48-.56,13.24-2.93,20.81-5,17.26-9.88,25.89-16.81,29.72a22.19,22.19,0,0,1-2.36,1l-.82.28a15.16,15.16,0,0,1-10.83-.55c-.46-.19-1-.45-1.47-.72l-7.1-3.73c-4.42,13.58-10.34,21.84-19,26.64a23,23,0,0,1-3.24,1.48c-.32.12-.64.22-1,.32a19.69,19.69,0,0,1-15.08-1.4l-8.06-4.24c-4.33,15.82-8.55,23.64-14.42,26.89a18.94,18.94,0,0,1-2.61,1.2l-.72.24a13,13,0,0,1-10.12-.84l-3.33-1.74c-3.46,9-7.24,14.4-11.8,16.91a20.71,20.71,0,0,1-3,1.36l-.86.29a16.76,16.76,0,0,1-13-1.15s-4.9-2.58-7.81-4.11c-4.61,14.72-9.21,22.26-15.64,25.82a20.54,20.54,0,0,1-2.36,1c-.27.1-.55.19-.82.27a15.14,15.14,0,0,1-10.82-.55A13.43,13.43,0,0,1,411,236l-6.93-3.65c-4.13,13.59-8,20.4-13.19,23.26a15.5,15.5,0,0,1-2.16,1l-.66.22a14,14,0,0,1-11.22-1.29l-1.2-.64c-1.61-.83-9.92-5.2-14-7.36a204.78,204.78,0,0,0-3.6,21.33l-.12,2.05a2.59,2.59,0,0,1-1.13,2l-19,12.83-.37.15a2.59,2.59,0,0,1-2-.12l-.29-.14a2.69,2.69,0,0,1-.56-.21A2.41,2.41,0,0,1,334,285h0a2.39,2.39,0,0,1-.58-.22,2.2,2.2,0,0,1-.5-.34,2.84,2.84,0,0,1-.58-.2,2.54,2.54,0,0,1-.56-.39,2.64,2.64,0,0,1-.61-.23,2.44,2.44,0,0,1-.51-.35,2.78,2.78,0,0,1-.57-.21,2.35,2.35,0,0,1-.56-.39,2.78,2.78,0,0,1-.57-.21,2.51,2.51,0,0,1-.54-.38,2.38,2.38,0,0,1-.56-.21,2.26,2.26,0,0,1-.59-.42s-.22-.11-.29-.16l-.13-.06-.23-.12a2.48,2.48,0,0,1-.64-.24,1.85,1.85,0,0,1-.5-.34l0,0a3,3,0,0,1-.59-.22,3.25,3.25,0,0,1-.52-.37h0a2.57,2.57,0,0,1-1.09-.56,2.22,2.22,0,0,1-.62-.24,2.07,2.07,0,0,1-.53-.36,2,2,0,0,1-.56-.21,2.31,2.31,0,0,1-.55-.37,2.78,2.78,0,0,1-.38-.12,32.77,32.77,0,0,1-5.08,3.54c-3.29,12.32-9.09,20.64-17.72,25.41a19.49,19.49,0,0,1-2.65,1.2c-.27.1-.53.19-.8.27a16.71,16.71,0,0,1-9.4.2c1.31,6.6-.08,14-4.08,21.35a51.44,51.44,0,0,1-19.36,19.76A86.56,86.56,0,0,1,249.26,355.3Zm-54.32-20.43a55.33,55.33,0,0,0,18.43-2.63q1.47-.45,2.94-1a71.71,71.71,0,0,0,10.06-4.59c8.3-4.58,16-12.64,19.34-19.83-.82.22-1.65.47-2.48.73-1.5.47-3,1-4.61,1.55A150.53,150.53,0,0,0,218,318.64,140.56,140.56,0,0,0,194.94,334.87Zm-80.69-62.46a48.48,48.48,0,0,0,13.22-.91A115.87,115.87,0,0,1,139.78,236c-2.15,1-4.29,2.1-6.44,3.29C109.45,252.45,110.8,265.36,114.25,272.41Zm80.17-47c-1.34,2.13-2.9,4.67-4.58,7.53a93.12,93.12,0,0,0,5.64-7.51Z"/><path class="cls-3" d="M558.77,24.29h0a.63.63,0,0,1,.5.06.61.61,0,0,1,.15.12.72.72,0,0,1,.22.08.64.64,0,0,1,.15.13.63.63,0,0,1,.23.08l.11.08a.62.62,0,0,1,.26.09.65.65,0,0,1,.16.13.9.9,0,0,1,.21.08.64.64,0,0,1,.15.13.45.45,0,0,1,.22.08l.12.08a.63.63,0,0,1,.25.09.35.35,0,0,1,.13.11.49.49,0,0,1,.24.08.61.61,0,0,1,.17.14.9.9,0,0,1,.21.08l.11.09a.62.62,0,0,1,.26.09l.13.1a.54.54,0,0,1,.24.09.46.46,0,0,1,.17.14.5.5,0,0,1,.2.08.47.47,0,0,1,.12.09.61.61,0,0,1,.25.08.53.53,0,0,1,.14.12.49.49,0,0,1,.23.08.57.57,0,0,1,.15.12.49.49,0,0,1,.23.08l.13.1a.65.65,0,0,1,.23.09.58.58,0,0,1,.17.14.67.67,0,0,1,.18.07.48.48,0,0,1,.11.09.6.6,0,0,1,.29.08.56.56,0,0,1,.16.14.58.58,0,0,1,.22.08l.15.12a.71.71,0,0,1,.18.08l.12.08a.75.75,0,0,1,.29.09.54.54,0,0,1,.16.14.86.86,0,0,1,.21.07l.14.11a.5.5,0,0,1,.23.09.38.38,0,0,1,.12.09.62.62,0,0,1,.26.09A.47.47,0,0,1,568,29a.83.83,0,0,1,.22.08.73.73,0,0,1,.16.14.71.71,0,0,1,.18.08.31.31,0,0,1,.09.07.65.65,0,0,1,.31.08.73.73,0,0,1,.16.14.54.54,0,0,1,.21.08.44.44,0,0,1,.15.12.58.58,0,0,1,.22.08l.11.08a.72.72,0,0,1,.27.09.5.5,0,0,1,.15.14.57.57,0,0,1,.22.07.86.86,0,0,1,.14.13.63.63,0,0,1,.23.08.31.31,0,0,1,.11.09.62.62,0,0,1,.39.19.68.68,0,0,1,.24.08.61.61,0,0,1,.17.15.68.68,0,0,1,.2.07l.12.09a.58.58,0,0,1,.25.09.49.49,0,0,1,.14.11.57.57,0,0,1,.24.08.73.73,0,0,1,.16.14.66.66,0,0,1,.21.08l.11.09a.79.79,0,0,1,.26.08.57.57,0,0,1,.16.15.45.45,0,0,1,.18.07l.11.08a.8.8,0,0,1,.3.09.53.53,0,0,1,.14.12.58.58,0,0,1,.22.08.41.41,0,0,1,.14.12.49.49,0,0,1,.23.08.44.44,0,0,1,.15.12.49.49,0,0,1,.23.08.44.44,0,0,1,.15.12.58.58,0,0,1,.22.08.64.64,0,0,1,.15.13.62.62,0,0,1,.19.07.48.48,0,0,1,.11.09.61.61,0,0,1,.3.08,1.07,1.07,0,0,1,.16.14.6.6,0,0,1,.21.08.88.88,0,0,1,.15.12.58.58,0,0,1,.18.08.5.5,0,0,1,.12.08.75.75,0,0,1,.29.09.54.54,0,0,1,.16.14.48.48,0,0,1,.21.07l.16.13a.6.6,0,0,1,.21.08.63.63,0,0,1,.31.58l-.52,7.18.09,0,.38.2.36.2a2.62,2.62,0,0,1,.37.19c.1.05.25.12.38.2s.23.12.37.19l.37.2a3.64,3.64,0,0,1,.38.2l.37.19.36.19.37.2a3.56,3.56,0,0,1,.38.2,3.3,3.3,0,0,1,.37.19l.37.2c.1,0,.24.12.38.19l.36.2c.11,0,.24.12.38.19l.36.19.39.21a3.28,3.28,0,0,1,.36.19,3.64,3.64,0,0,1,.38.2,2.57,2.57,0,0,1,.36.19l.38.2a2.62,2.62,0,0,1,.37.19l.38.2.37.19.37.2a2.8,2.8,0,0,1,.37.2,2.62,2.62,0,0,1,.37.19,2.8,2.8,0,0,1,.37.2,3.34,3.34,0,0,1,.38.19l.37.2.37.19.37.2c.1,0,.24.12.37.19l.37.2c.1,0,.24.12.37.19l.38.2.37.19.37.2.38.2.36.19c.1,0,.23.12.37.19l.39.21.28.14a6.26,6.26,0,0,1,3.34,7.12A5.72,5.72,0,0,1,595,61.27L576.17,71.66c-.17,3.77-.55,9.26-1,15.59L575,89.67c.19.09.37.19.56.3l.3.16.37.2a3.64,3.64,0,0,1,.38.2l.37.19.37.2.37.19.38.2.36.19.37.2a2.38,2.38,0,0,1,.38.2,2.62,2.62,0,0,1,.37.19l.37.19.37.2a2.8,2.8,0,0,1,.37.2,3.3,3.3,0,0,1,.37.19c.1,0,.24.12.39.2l.37.2.36.19a2.38,2.38,0,0,1,.38.2l.37.19a3.28,3.28,0,0,1,.36.19l.38.2.38.2.36.19.37.2a3.34,3.34,0,0,1,.38.19l.37.2.37.19.37.2a2.62,2.62,0,0,1,.37.19l.37.2a3.3,3.3,0,0,1,.37.19l.39.2.37.2.35.19a3.66,3.66,0,0,1,.39.2l.37.19.37.2a3.71,3.71,0,0,1,.38.2l.37.19.35.19a3.66,3.66,0,0,1,.39.2,2.8,2.8,0,0,1,.37.2l.37.19.37.2a2.38,2.38,0,0,1,.38.2,2.14,2.14,0,0,1,.36.19,3.34,3.34,0,0,1,.38.19l.36.2a2.91,2.91,0,0,1,.39.2,6.1,6.1,0,0,1,2.66,2.62c1.73,3.21-1.92,15.58-3.08,19.29-4.86,16.76-9.47,25.05-15.91,28.61a19.62,19.62,0,0,1-2.08.91l-.74.25a13.21,13.21,0,0,1-9.46-.47,10.87,10.87,0,0,1-1.33-.65L555,145.46c-4.33,14.38-10.15,22.95-18.81,27.74a21.79,21.79,0,0,1-3,1.35l-.87.3a17.83,17.83,0,0,1-13.62-1.28l-10.21-5.37-.24,1c-4.3,16.16-8.32,24-13.86,27.06a16.6,16.6,0,0,1-2.33,1.07c-.21.08-.43.15-.64.21a11.1,11.1,0,0,1-8.65-.7l-.4-.21h0l-.37-.19h0l-.38-.2-.41-.22L479,194.86h0l-.74-.39h0s-.64-.33-.77-.41c-3.51,9.78-7.23,15.5-11.7,18a19.51,19.51,0,0,1-2.69,1.23c-.26.1-.52.18-.78.26a14.81,14.81,0,0,1-11.48-1L441,207.3c-4.69,15.65-9.17,23.48-15.41,26.92a18,18,0,0,1-2.09.92l-.74.25a13.23,13.23,0,0,1-9.45-.47,13.77,13.77,0,0,1-1.34-.65l-9.06-4.76c-4.16,14.37-8,21.66-12.94,24.37a12.79,12.79,0,0,1-1.89.86l-.56.19a12.11,12.11,0,0,1-9.71-1.12l-1.18-.63-16.35-8.59c-2.45,11.39-4,20.71-4.16,24.11l-.13,2.05a.63.63,0,0,1-.28.47l-18.82,12.7a.37.37,0,0,1-.14.07h0a.59.59,0,0,1-.47,0,.48.48,0,0,1-.16-.12.46.46,0,0,1-.23-.06l-.13-.09a.75.75,0,0,1-.33-.07.69.69,0,0,1-.25-.23h0a.48.48,0,0,1-.16-.12.57.57,0,0,1-.22-.07.42.42,0,0,1-.14-.09.66.66,0,0,1-.33-.07.59.59,0,0,1-.24-.23h0a.76.76,0,0,1-.17-.13.9.9,0,0,1-.22-.06l-.12-.08a.6.6,0,0,1-.34-.07.63.63,0,0,1-.26-.25h0a.47.47,0,0,1-.17-.14.66.66,0,0,1-.2-.06.41.41,0,0,1-.11-.07.6.6,0,0,1-.37-.07.57.57,0,0,1-.26-.25h0a.66.66,0,0,1-.17-.12l-.18-.06a.41.41,0,0,1-.11-.07.61.61,0,0,1-.37-.06.63.63,0,0,1-.26-.25h0a.52.52,0,0,1-.19-.14.58.58,0,0,1-.17-.06l-.11-.07a.68.68,0,0,1-.37-.07.63.63,0,0,1-.26-.25h0a.7.7,0,0,1-.17-.13l-.19-.06-.1-.07a.63.63,0,0,1-.36-.06.66.66,0,0,1-.24-.23l-.05,0a.58.58,0,0,1-.19-.15l-.17-.05a.62.62,0,0,1-.18-.14.7.7,0,0,1-.19-.06.52.52,0,0,1-.17-.12.63.63,0,0,1-.22-.07l-.13-.08a.6.6,0,0,1-.32-.07.56.56,0,0,1-.25-.23h0a1.09,1.09,0,0,1-.17-.13.83.83,0,0,1-.21-.06.71.71,0,0,1-.14-.1.55.55,0,0,1-.33-.07.57.57,0,0,1-.24-.22h0a.58.58,0,0,0-.39-.19L325,278a.8.8,0,0,1-.34-.07.59.59,0,0,1-.24-.23h0a.66.66,0,0,1-.17-.12.58.58,0,0,1-.21-.07.35.35,0,0,1-.12-.07.61.61,0,0,1-.35-.07.69.69,0,0,1-.26-.25h0a1.09,1.09,0,0,1-.17-.13.55.55,0,0,1-.18-.06l-.12-.07a.65.65,0,0,1-.36-.07.6.6,0,0,1-.27-.25h0a.45.45,0,0,1-.17-.13.6.6,0,0,1-.19-.06.41.41,0,0,1-.11-.07.66.66,0,0,1-.37-.06A.72.72,0,0,1,321,276h0a.9.9,0,0,1-.19-.15l-.17-.05-.1-.07a.6.6,0,0,1-.23,0,30.47,30.47,0,0,1-5.94,4.3l-.53.29c-3.1,12.22-8.66,20.4-17,25a17.39,17.39,0,0,1-2.37,1.09l-.72.24A15.11,15.11,0,0,1,282,305.42c2.71,7,1.73,15.28-2.83,23.65a49.53,49.53,0,0,1-18.61,19,84.89,84.89,0,0,1-12,5.43c-1.33.48-2.69.94-4,1.36-22.56,7-47.51,5.27-66.73-4.67l-1.19-.62a172.89,172.89,0,0,0-15.52,20.57c-1.91,2.91-2.55,3.89-3.9,4.63a4.54,4.54,0,0,1-.78.35l-.25.09a5.84,5.84,0,0,1-4.68-.57l-.35-.18c-.1,0-.23-.12-.37-.19l-.37-.2-.38-.2a3.28,3.28,0,0,1-.36-.19l-.38-.2a2.62,2.62,0,0,1-.37-.19l-.37-.2a3.34,3.34,0,0,1-.38-.19l-.37-.2a3.62,3.62,0,0,1-.37-.2,3.3,3.3,0,0,1-.37-.19l-.37-.2a2.62,2.62,0,0,1-.37-.19,3.64,3.64,0,0,1-.38-.2,3.28,3.28,0,0,1-.36-.19c-.1,0-.25-.12-.38-.2s-.24-.12-.37-.19l-.37-.2a3.64,3.64,0,0,1-.38-.2,3.28,3.28,0,0,1-.36-.19,3.64,3.64,0,0,1-.38-.2,2.62,2.62,0,0,1-.37-.19l-.38-.2a3.28,3.28,0,0,1-.36-.19l-.38-.2-.37-.19-.37-.2-.37-.19-.38-.2-.37-.2a3.28,3.28,0,0,1-.36-.19,3.64,3.64,0,0,1-.38-.2,3.3,3.3,0,0,1-.37-.19,2.8,2.8,0,0,1-.37-.2,2.62,2.62,0,0,1-.37-.19l-.38-.2-.37-.19L137,367a2.8,2.8,0,0,1-.37-.2,3.3,3.3,0,0,1-.37-.19,2.8,2.8,0,0,1-.37-.2l-.38-.19-.37-.2a3.3,3.3,0,0,1-.37-.19l-.38-.2a3.28,3.28,0,0,1-.36-.19l-.38-.2a3.28,3.28,0,0,1-.36-.19l-.4-.21a5.64,5.64,0,0,1-2.5-2.38c-1.56-2.84-1-6,6.32-16.26,3.06-4.27,7-9.3,10.84-13.85a61.39,61.39,0,0,1-10.82-14.19,72.28,72.28,0,0,1-6.37-15.9,42.24,42.24,0,0,1-18.71-4.81s-18.47-9.7-18.6-9.78a27,27,0,0,1-11-10.77c-6.27-11.36-6.21-23.89.16-36.22,5.49-10.6,15.34-20.21,27.76-27.06A88.23,88.23,0,0,1,122.46,208c1.47-.54,3-1,4.48-1.51,14.08-4.38,28.52-5.54,39.59-6.06A116.4,116.4,0,0,1,199.82,173a47.27,47.27,0,0,1,6.68-3.09c.49-.18,1-.35,1.46-.49,5.33-1.66,9.65-1.43,13.22.71.09,0,.57.29.7.37l.38.19,2.61,1.38c.1,0,.23.11.36.19l4.09,2.15a3.56,3.56,0,0,1,.38.2c.1,0,4.32,2.26,4.45,2.34l.38.2,2.23,1.17.37.19,2.22,1.17.43.23a12.61,12.61,0,0,1,5,5.12c5,9,2,19.72-4.44,34.06l4.69,2.46.4.22a6.61,6.61,0,0,1,3.07,2.72,6,6,0,0,1-2.36,8.12,7.62,7.62,0,0,1-1,.44l-.28.1c-2.24.69-4.15-.09-5.83-.79-1-.43-2.43-1-4.59-1.68-15.51,30.53-47.88,52.16-66.07,62.46a55,55,0,0,0,2.41,16.07c9.67-8.39,19.53-15.58,27.17-19.8a92.37,92.37,0,0,1,13.07-6c1.27-.46,2.54-.89,3.81-1.28,12.61-3.92,24.46-4.22,33.26-.95l-.34-.19-.37-.19a3.3,3.3,0,0,1-.37-.19l-.29-.15a5.53,5.53,0,0,1-2.62-2.44c-.86-1.52-1.67-3,3.63-19.95,4.68-14.76,13-26.33,22.86-31.77a19.1,19.1,0,0,1,2.57-1.18l.76-.25a15.17,15.17,0,0,1,12,1.17l1.87,1,2.6,1.37h0l3,1.56,4.1,2.16,3.34,1.75h0l1.37.72.79-3.71c3.17-15.21,7-26.29,15.44-30.93a13.13,13.13,0,0,1,1.91-.88l.56-.19a10.76,10.76,0,0,1,8.4.76l1.89,1,6.1,3.21c3.89-12,7.63-18.52,12.08-21a11.28,11.28,0,0,1,1.63-.73l.49-.17a11,11,0,0,1,8.78,1l18.18,9.56.75-3.34c1.76-7.38,4.22-19.58,5.92-31.9l-.15-.08a3.36,3.36,0,0,1-.4-.22,3.64,3.64,0,0,1-.38-.2,2.57,2.57,0,0,1-.36-.19l-.36-.18-.39-.21-.37-.19-.37-.2a2,2,0,0,1-.37-.2,6,6,0,0,1-2.7-2.62c-1.32-2.45-.74-6.34,2-7.87l4.86-2.68,1-21.47a.62.62,0,0,1,.29-.49l19.06-12.18.12-.06h0a.65.65,0,0,1,.51.06.79.79,0,0,1,.15.12.65.65,0,0,1,.22.08.93.93,0,0,1,.15.13.56.56,0,0,1,.18.07l.12.09a.52.52,0,0,1,.29.09.51.51,0,0,1,.16.13.54.54,0,0,1,.21.08.47.47,0,0,1,.15.13.44.44,0,0,1,.19.07l.11.08a.75.75,0,0,1,.3.09.7.7,0,0,1,.16.14.6.6,0,0,1,.21.08.43.43,0,0,1,.16.14.67.67,0,0,1,.18.07.39.39,0,0,1,.1.08.61.61,0,0,1,.3.08.69.69,0,0,1,.13.11.58.58,0,0,1,.25.09.55.55,0,0,1,.18.16.51.51,0,0,1,.15.07.41.41,0,0,1,.11.07.62.62,0,0,1,.29.09l.14.11a.68.68,0,0,1,.24.08.61.61,0,0,1,.17.15.68.68,0,0,1,.2.07.69.69,0,0,1,.13.11.62.62,0,0,1,.24.08l.12.09a.62.62,0,0,1,.26.09.73.73,0,0,1,.16.14.7.7,0,0,1,.2.08.71.71,0,0,1,.14.1.59.59,0,0,1,.24.09.53.53,0,0,1,.14.12.68.68,0,0,1,.2.07l.14.11a.62.62,0,0,1,.26.09l.14.11a.63.63,0,0,1,.23.08l.15.12a.7.7,0,0,1,.2.08.69.69,0,0,1,.13.11.7.7,0,0,1,.27.08.81.81,0,0,1,.14.12.63.63,0,0,1,.23.08.47.47,0,0,1,.15.13.44.44,0,0,1,.19.07l.11.08a.75.75,0,0,1,.29.09.44.44,0,0,1,.16.14.49.49,0,0,1,.21.08.44.44,0,0,1,.15.12.64.64,0,0,1,.19.08l.12.08a.62.62,0,0,1,.29.09.65.65,0,0,1,.16.13.9.9,0,0,1,.21.08.64.64,0,0,1,.15.13.62.62,0,0,1,.19.07l.12.09a.76.76,0,0,1,.28.09.47.47,0,0,1,.13.11.73.73,0,0,1,.25.08.58.58,0,0,1,.18.17.52.52,0,0,1,.16.06l.1.08a.52.52,0,0,1,.29.09.5.5,0,0,1,.14.1.7.7,0,0,1,.24.09.56.56,0,0,1,.18.16l.16.07.1.07a.75.75,0,0,1,.3.09.47.47,0,0,1,.13.11.58.58,0,0,1,.43.25.56.56,0,0,1,.16.07.47.47,0,0,1,.12.09.6.6,0,0,1,.28.08l.15.12a.77.77,0,0,1,.19.08l.14.11a.61.61,0,0,1,.26.08.55.55,0,0,1,.14.12.75.75,0,0,1,.24.08.53.53,0,0,1,.14.12.5.5,0,0,1,.2.08.45.45,0,0,1,.13.1.62.62,0,0,1,.27.09l.14.11a.65.65,0,0,1,.23.09.57.57,0,0,1,.15.12.73.73,0,0,1,.19.07.53.53,0,0,1,.14.11.62.62,0,0,1,.26.09.4.4,0,0,1,.14.11.75.75,0,0,1,.24.08l.13.11a.58.58,0,0,1,.22.08.63.63,0,0,1,.31.58l-.51,7.2.07,0a3.28,3.28,0,0,1,.36.19,3.64,3.64,0,0,1,.38.2,2.57,2.57,0,0,1,.36.19,17412903663088.53,17412903663088.53,0,0,1,.76.4l.36.18.38.21a2.62,2.62,0,0,1,.37.19,3.3,3.3,0,0,1,.37.19l.38.2.37.2a3.28,3.28,0,0,1,.36.19,3.66,3.66,0,0,1,.39.2l.36.19.37.2a3.64,3.64,0,0,1,.38.2,36.67,36.67,0,0,1,.73.38l.39.2.36.2.36.18.39.21a2.8,2.8,0,0,1,.37.2,3,3,0,0,1,.36.18l.38.2.37.19c.09.05.24.12.38.21a3.3,3.3,0,0,1,.37.19l.37.2a2.57,2.57,0,0,1,.36.19,3.66,3.66,0,0,1,.39.2l.36.19a3.64,3.64,0,0,1,.38.2c.1,0,.23.12.37.19l.36.2a3.66,3.66,0,0,1,.39.2l.19.09c.82-.55,1.64-1.05,2.46-1.51a15.33,15.33,0,0,1,2.16-1l.63-.22a12,12,0,0,1,9.64,1l.06,0c.31-3.21,1.31-5.65,4.58-7.67l16-9.74.11-.06h0a.65.65,0,0,1,.54.09.39.39,0,0,1,.1.08.63.63,0,0,1,.28.1l.11.1a.66.66,0,0,1,.26.11l.1.09a.63.63,0,0,1,.27.1l.09.08a.69.69,0,0,1,.28.11.5.5,0,0,1,.13.12.64.64,0,0,1,.24.1l.08.07a.65.65,0,0,1,.29.11.39.39,0,0,1,.1.08.61.61,0,0,1,.28.11.49.49,0,0,1,.13.12.67.67,0,0,1,.23.1l.09.07a.55.55,0,0,1,.29.11l.09.08a.56.56,0,0,1,.28.1.53.53,0,0,1,.13.13.51.51,0,0,1,.24.1l.08.06a.63.63,0,0,1,.32.12.39.39,0,0,1,.1.08.66.66,0,0,1,.25.1.52.52,0,0,1,.11.1.82.82,0,0,1,.26.1l.09.08a.72.72,0,0,1,.31.11.47.47,0,0,1,.1.1.51.51,0,0,1,.24.1.58.58,0,0,1,.12.1.6.6,0,0,1,.25.1.24.24,0,0,1,.09.08.58.58,0,0,1,.31.11.61.61,0,0,1,.21.24l.07,0a.64.64,0,0,1,.44.11l.09.08a.56.56,0,0,1,.28.1l.11.1a.6.6,0,0,1,.26.11.48.48,0,0,1,.11.09.64.64,0,0,1,.26.1l.1.08a.75.75,0,0,1,.28.11.57.57,0,0,1,.19.22l.11.07a.64.64,0,0,1,.44.11.34.34,0,0,1,.09.08.57.57,0,0,1,.28.11.53.53,0,0,1,.14.12.67.67,0,0,1,.23.1.27.27,0,0,1,.08.07.52.52,0,0,1,.29.11.39.39,0,0,1,.1.08.42.42,0,0,1,.15,0c4.15-10.88,10.55-18.76,19.05-23.46a28.07,28.07,0,0,1,3.82-1.75c.34-.13.69-.24,1-.35,4.45-1.38,8.6-1.13,12,.73l9.81,5.15c1-4.77,3.19-15.4,4.79-27l-.18-.1a2.3,2.3,0,0,1-.34-.18,4,4,0,0,1-.41-.21l-.35-.19-.36-.18-.4-.21-.36-.19-.35-.19a3.66,3.66,0,0,1-.39-.2A6,6,0,0,1,531.43,69c-1.33-2.43-.75-6.31,2-7.84l4.85-2.67,1-21.46a.63.63,0,0,1,.29-.5l19.06-12.18.12-.06M144.23,231.91a109.09,109.09,0,0,0-11.83,5.66C106,252.15,108.93,266.8,113,274.24a49.87,49.87,0,0,0,16.14-1.14c2.1-13.8,7-27.29,15.06-41.19m37,12.75a99.66,99.66,0,0,0,17.69-21.07c-1.89-.1-3.76-.16-5.58-.17a243,243,0,0,0-12.11,21.24m341.44-106a57.78,57.78,0,0,0,2.74-8c.57-2.15,1.09-4.15,1.54-6l-.88-.46a45.13,45.13,0,0,0-3.4,14.47M217,333.06a72.63,72.63,0,0,0,10.33-4.71c10.17-5.62,19.2-15.89,21.47-24.29-1.94.44-4,1-6.13,1.65-1.52.48-3.09,1-4.69,1.59a144.42,144.42,0,0,0-47.76,29.13,55.77,55.77,0,0,0,23.74-2.34c1-.32,2-.66,3-1M557.45,20.66a4.22,4.22,0,0,0-.88.43L537.51,33.27a4.48,4.48,0,0,0-2.07,3.6l-.89,19.28-2.95,1.63c-4.85,2.67-5.78,9-3.57,13.08a9.83,9.83,0,0,0,4.32,4.24l.4.21.32.16c-1.09,7.38-2.37,14.22-3.33,19l-5.26-2.77c-4.29-2.34-9.48-2.69-14.94-1-.41.12-.81.26-1.21.41a31.4,31.4,0,0,0-4.37,2c-8.23,4.54-14.64,11.75-19.11,21.46l-.18-.08a4.44,4.44,0,0,0-.83-.45.8.8,0,0,0-.16-.08,2.27,2.27,0,0,0-.34-.19,3.55,3.55,0,0,0-.58-.3l-.18-.1a4.16,4.16,0,0,0-.42-.23,6.45,6.45,0,0,0-.59-.29,5.19,5.19,0,0,0-.66-.35l-.4-.2h0a4.43,4.43,0,0,0-.71-.39c-.13-.06-.26-.13-.39-.18h0a3.29,3.29,0,0,0-.69-.38l-.3-.16-.25-.14a4.25,4.25,0,0,0-.56-.29,4.48,4.48,0,0,0-3.53-.37l-.09,0-.11,0a4.63,4.63,0,0,0-.78.37l-16,9.76a12.77,12.77,0,0,0-5.28,5.83,16.05,16.05,0,0,0-8.14.43l-.81.27a20.48,20.48,0,0,0-2.71,1.24l-.76.44-.08,0-.4-.21-.35-.18-.38-.21-.36-.19-.4-.21-.35-.18-.39-.21-.35-.18-.36-.19-.42-.22-.34-.18-.37-.19-.4-.21L434,126l-.36-.19-.39-.2-.37-.2-.36-.18c-.13-.08-.27-.15-.39-.21l-.36-.19-.36-.19-.39-.21-.37-.19-.36-.19-.4-.21,0,0,.33-4.67A4.45,4.45,0,0,0,428,115a2.78,2.78,0,0,0-.42-.22l-.26-.14h0a5.12,5.12,0,0,0-.52-.27l-.18-.1h0l-.4-.22c-.17-.09-.34-.18-.52-.26l-.17-.09,0,0-.4-.21c-.17-.1-.34-.18-.51-.26l-.16-.09,0,0a5.68,5.68,0,0,0-.55-.28l-.22-.14-.48-.25a3.19,3.19,0,0,0-.49-.24l-.15-.1a4,4,0,0,0-.46-.24,4.66,4.66,0,0,0-.5-.25l-.16-.09-.46-.25a4.32,4.32,0,0,0-.57-.28l-.06,0-.26-.15-.18-.11a4.33,4.33,0,0,0-.65-.31l0,0-.26-.14-.17-.1a4.25,4.25,0,0,0-.64-.32l0,0-.4-.21a5,5,0,0,0-.52-.26l-.16-.09,0,0a4,4,0,0,0-.41-.21,3.06,3.06,0,0,0-.51-.26l-.16-.09-.06,0a5.21,5.21,0,0,0-.47-.24l-.12-.07-.19-.12a5.6,5.6,0,0,0-.55-.27,2.44,2.44,0,0,0-.28-.14l-.06,0-.23-.15-.43-.22-.49-.25-.17-.1a4,4,0,0,0-.46-.24,5.36,5.36,0,0,0-.54-.26l-.09,0-.26-.14-.18-.11a3.82,3.82,0,0,0-.64-.32l0,0-.26-.14-.18-.11a4.21,4.21,0,0,0-.64-.31l0,0-.34-.19-.1-.06a4.49,4.49,0,0,0-3.59-.4l-.09,0-.11.05a4.22,4.22,0,0,0-.88.43l-19.06,12.18a4.47,4.47,0,0,0-2.07,3.58l-.89,19.3-3,1.63c-4.81,2.68-5.72,9-3.54,13.09a9.87,9.87,0,0,0,4.29,4.22l.38.2.37.19h0c-1.54,10.45-3.55,20.56-5.11,27.33l-13.73-7.22a14.72,14.72,0,0,0-11.73-1.31l-.67.22a15.5,15.5,0,0,0-2.16,1c-4.84,2.67-8.65,8.4-12.42,18.85-.89-.45-1.58-.79-2.14-1l0-.07-2-1a14.46,14.46,0,0,0-11.28-1l-.73.25a17,17,0,0,0-2.47,1.12c-9.45,5.22-13.73,16.66-17.08,32.27l-.13-.06,0,0-3.42-1.79-.65-.34-.1-.06L292.24,225h0l-2.65-1.39-1.82-1h0a19,19,0,0,0-15-1.46c-.31.09-.62.2-.93.31a22.36,22.36,0,0,0-3.12,1.42c-10.71,5.92-19.7,18.3-24.67,34-3.17,10.15-4.37,15.28-4.44,18.43a66,66,0,0,0-25.92,3.1c-1.33.41-2.67.87-4,1.35A96.34,96.34,0,0,0,196.12,286a162.68,162.68,0,0,0-23,16.18,46.55,46.55,0,0,1-.84-6.83c18.08-10.47,48.12-31.11,64.06-60l1.24.5c2,.81,4.9,2,8.47.91l.45-.16a9.92,9.92,0,0,0,5.43-14,10.56,10.56,0,0,0-4.7-4.34c-.15-.09-.31-.17-.45-.24l-1.44-.76c5.89-13.78,8.2-24.5,2.84-34.19a16.58,16.58,0,0,0-6.53-6.62c-.15-.09-.35-.2-.54-.29L239,175.1c-.16-.1-.32-.18-.46-.25-.44-.23-1.64-.87-2.14-1.12l-.51-.27-4.3-2.26-.53-.28-3.95-2.08-.45-.24-2.52-1.32-.45-.24-.6-.31c-4.48-2.64-9.95-3-16.25-1-.53.17-1.08.35-1.63.56A50.62,50.62,0,0,0,198,169.6a120.57,120.57,0,0,0-33.3,27.05c-11,.57-25,1.85-38.86,6.15-1.57.48-3.13,1-4.65,1.56a92.73,92.73,0,0,0-13,5.89c-13.08,7.22-23.49,17.4-29.32,28.68-7,13.53-7,27.31-.11,39.85a30.6,30.6,0,0,0,12.56,12.31s.11.07,18.63,9.8A44.37,44.37,0,0,0,127.42,306a75.43,75.43,0,0,0,5.94,14.09,65.33,65.33,0,0,0,9,12.51c-3.16,3.86-6.27,7.9-8.78,11.41-6.8,9.52-9.52,15-6.57,20.37a9.52,9.52,0,0,0,4.08,3.94l.42.22.35.18.4.21.34.18.39.21.37.19.37.2.37.19.39.2.35.19.37.19.38.21.37.19.38.2.36.19.39.2.35.19.39.2.36.19.36.19.39.21.37.19c.13.07.25.14.37.19l.37.2.38.2.36.19.37.19.37.2.39.2.35.19.4.2.36.2.36.19.39.2.35.18.38.21.37.19.38.2.37.19.37.2.37.19.39.21.36.19.36.19.39.2.36.19.38.2.37.2.36.18.34.18a9.69,9.69,0,0,0,7.64.84l.42-.14a9.06,9.06,0,0,0,1.34-.62c2.17-1.18,3.2-2.75,5.25-5.89a171.61,171.61,0,0,1,13.23-17.86c19.9,9.72,45.21,11.29,68.13,4.16,1.41-.44,2.83-.92,4.22-1.42a89.35,89.35,0,0,0,12.52-5.67,53.61,53.61,0,0,0,20.13-20.53c3.67-6.73,5.25-13.57,4.68-19.88a18.6,18.6,0,0,0,7.67-.75c.3-.09.59-.19.89-.3a20.66,20.66,0,0,0,2.92-1.33c8.94-4.94,15-13.4,18.44-25.83a34.77,34.77,0,0,0,3.66-2.5l.36.14a3.58,3.58,0,0,0,.59.36,3.64,3.64,0,0,0,.57.25,4.27,4.27,0,0,0,.51.3,5.38,5.38,0,0,0,.55.24,3.71,3.71,0,0,0,.54.33,4.29,4.29,0,0,0,.58.26,4.6,4.6,0,0,0,.6.37,4.09,4.09,0,0,0,.78.31l0,0,.15.07.06,0a4.49,4.49,0,0,0,.79.52,4,4,0,0,0,.53.23,3.92,3.92,0,0,0,.59.37c.17.09.35.16.52.23a4.9,4.9,0,0,0,.62.38,3.76,3.76,0,0,0,.55.23,4.25,4.25,0,0,0,.58.35,4.55,4.55,0,0,1,1.06.56,4.66,4.66,0,0,0,.61.26,3.48,3.48,0,0,0,.5.3,3.64,3.64,0,0,0,.57.25,3.77,3.77,0,0,0,.54.34,4.14,4.14,0,0,0,.82.33h0l.07,0a4.48,4.48,0,0,0,3.35.27l.09,0,.12,0a4.69,4.69,0,0,0,1-.5l18.82-12.7a4.43,4.43,0,0,0,2-3.42l.13-2.07a185.8,185.8,0,0,1,3-18.54c4.21,2.22,10,5.27,11.71,6.14h0l1.25.66a15.87,15.87,0,0,0,12.68,1.42l.75-.26a18.15,18.15,0,0,0,2.43-1.1c5.36-3,9.36-9.51,13.41-22.17l4.92,2.59a15,15,0,0,0,1.66.8,17,17,0,0,0,12.08.59c.3-.09.61-.2.91-.31a20.7,20.7,0,0,0,2.53-1.11c6.66-3.67,11.39-11,15.95-24.78l5.77,3a18.65,18.65,0,0,0,14.43,1.3l.95-.32a24,24,0,0,0,3.24-1.48c4.61-2.55,8.44-7.65,11.87-15.9l.28.14.3.15h0l.44.23.49.25a15,15,0,0,0,11.51.93q.41-.12.81-.27a20,20,0,0,0,2.88-1.32c6.17-3.41,10.4-10.75,14.71-25.75,2.43,1.28,5.15,2.7,6,3.12h0a21.61,21.61,0,0,0,16.53,1.53l1-.35a26.4,26.4,0,0,0,3.52-1.61c8.67-4.78,14.69-12.76,19.2-25.57l5.12,2.7a16.74,16.74,0,0,0,1.65.79,16.94,16.94,0,0,0,12.09.59c.3-.09.6-.2.91-.31a21.39,21.39,0,0,0,2.53-1.11c7.54-4.16,12.68-13.11,17.85-31,5.41-17.3,3.5-20.86,2.78-22.2a10,10,0,0,0-4.27-4.21l-.4-.21-.35-.19-.38-.2-.37-.2-.36-.18-.39-.21-.36-.18c-.12-.08-.25-.14-.36-.2l-.42-.22-.33-.17-.38-.2-.38-.2-.37-.2-.35-.18-.42-.22-.33-.17-.37-.2-.41-.21-.35-.19-.37-.19c-.13-.08-.26-.14-.38-.2s-.25-.14-.37-.19l-.37-.2L587,91.6l-.37-.19-.4-.21-.35-.19-.38-.2-.37-.19c-.13-.08-.26-.14-.38-.2l-.36-.19L584,90l-.37-.19-.36-.19-.41-.22-.35-.18-.37-.2c-.13-.07-.26-.14-.38-.19l-.36-.19-.37-.2-.38-.2-.38-.2-.36-.19-.38-.2-.36-.19-.12-.06v-.1c.36-5.16.68-9.75.87-13.32l16.94-9.35a9.6,9.6,0,0,0,4.62-5.8,9.86,9.86,0,0,0-1-7.55,9.74,9.74,0,0,0-4.32-4.06l-.21-.11-.42-.22-.36-.19-.35-.18-.39-.21-.38-.2-.34-.18-.39-.2-.37-.2-.37-.19-.38-.2-.37-.2-.37-.19-.37-.2-.37-.19-.38-.2L590,44l-.39-.2-.37-.2-.35-.18a2.81,2.81,0,0,0-.38-.2c-.13-.08-.26-.14-.38-.2s-.26-.14-.38-.2l-.35-.19c-.14-.07-.28-.15-.4-.2l-.35-.19c-.13-.08-.27-.15-.39-.21l-.36-.19-.38-.2-.34-.17-.4-.21-.37-.2-.35-.18-.4-.21-.36-.19-.37-.2-.37-.19-.37-.2-.08,0,.33-4.66A4.47,4.47,0,0,0,580.24,31l-.27-.15-.08-.05-.25-.14-.14-.08a4.17,4.17,0,0,0-.67-.33l0,0-.27-.15-.19-.11a3.44,3.44,0,0,0-.64-.31l0,0-.34-.19,0,0c-.14-.07-.27-.15-.41-.21l0,0-.37-.19a3.07,3.07,0,0,0-.31-.17l-.08-.05a5,5,0,0,0-.57-.28l-.08-.05a5.35,5.35,0,0,0-.59-.29l-.19-.13a3.45,3.45,0,0,0-.47-.24,3.58,3.58,0,0,0-.48-.24l-.15-.09a2.73,2.73,0,0,0-.48-.25,2.81,2.81,0,0,0-.55-.27h0a.31.31,0,0,0-.1-.05l-.22-.13-.11-.07a6.65,6.65,0,0,0-.66-.32h0l-.09-.06-.24-.14-.16-.09a4.73,4.73,0,0,0-.64-.31l0,0-.26-.15-.16-.1a4.89,4.89,0,0,0-.51-.26l-.28-.14-.17-.09-.13-.08a4.62,4.62,0,0,0-.67-.33l0,0-.26-.15-.19-.11A3.92,3.92,0,0,0,567,24l-.12-.07c-.14-.08-.28-.16-.43-.23a3.59,3.59,0,0,0-.34-.17l0,0a2.31,2.31,0,0,0-.35-.18,4.39,4.39,0,0,0-.53-.27l-.21-.13a4.73,4.73,0,0,0-.45-.23,4.39,4.39,0,0,0-.44-.21l-.2-.13a3.33,3.33,0,0,0-.46-.24,4,4,0,0,0-.51-.25l-.07,0,0,0-.26-.14-.18-.11a3.05,3.05,0,0,0-.63-.3l-.08-.05a3.07,3.07,0,0,0-.31-.17l0,0a4.5,4.5,0,0,0-3.65-.44l-.09,0-.11,0ZM115.53,270.55c-4.35-10.21,2.09-20.4,18.74-29.6l1.16-.63a115.26,115.26,0,0,0-9.64,29.54,46.83,46.83,0,0,1-10.26.69Zm84.94,62.27a132.07,132.07,0,0,1,18.46-12.49,147.1,147.1,0,0,1,20.35-9.4c.8-.29,1.6-.57,2.38-.83A48.77,48.77,0,0,1,225.44,325a70.52,70.52,0,0,1-9.78,4.46c-1,.35-1.91.67-2.86,1a57.17,57.17,0,0,1-12.33,2.42Z"/><path class="cls-3" d="M156.87,333.19c-13.82,15-19.74,26.52-20.76,27.08a1,1,0,0,1-1.32-.38c-1.24-2.22,10.71-18.19,19.66-28.27a55.29,55.29,0,0,1-13.34-16.06c-5-9.07-8.38-20.84-8.1-31.26-14.58,4.71-38.1,5.4-46.58-10-11.71-21.21,3.61-44.4,26-56.77,17.45-9.63,37.38-11.93,56.6-12.71a110.34,110.34,0,0,1,33.24-27.94c10.42-5.75,16.57-5.13,19.5.17,3.87,7,1.88,16.37-7.13,35.18,6.75,2.53,10.28,3.26,10.84,4.29a1.12,1.12,0,0,1-.45,1.58c-1.55.86-2.33-.94-11.95-3.44-14.36,31.8-47.85,54.08-68,65.22-1.66,10.73,4.13,28.52,9,37.42,2,3.58,3.89,5.43,6.28,8.14,12.08-12.47,28.25-25.64,40.06-32.16,21.71-12,48.19-15,57.35,1.6,7.17,13-5,31.34-18.37,38.71C215.16,347,180.65,348,156.87,333.19Zm-23.21-56.61c3.13-26.27,16.67-48.26,32.75-68.06-19.75.62-37.84,5-55.12,14.57-16.6,9.17-31.55,24.56-21.25,43.2C97.21,279.29,118,281.42,133.66,276.58Zm75.88-63.09a128,128,0,0,0-37.63-5.12c-12.58,19.68-24.13,41.22-26.58,64.68,3.89-1,6.7-2.81,11.33-5.36C178.22,255.79,199.28,238.14,209.54,213.49Zm-13.6,89c-12.33,6.81-23.41,15.82-33.52,25.42,17.86,17.38,44.61,16.91,67.37,4.35,16.07-8.87,29-27.6,23-38.37C246,281.54,219,289.72,195.94,302.47Zm6.8-123.16C191.61,185.45,182,194.76,174.48,205a158.75,158.75,0,0,1,36.11,6c3.55-7.3,9.12-23.11,5-30.63C213.28,176.17,210.1,175.24,202.74,179.31Z"/><path class="cls-3" d="M291.61,263.29a4.42,4.42,0,0,0,2.06-.69c5.82-3.22,9.74-9.84,11.28-17.16.8-3.8.79-4.23,1.31-4.52a.83.83,0,0,1,1.32.39c.18.34.22,1.21-1.45,7.49a26.83,26.83,0,0,1-12.87,16.7,8.12,8.12,0,0,1-2.32,1.07c-2,8.91-5.61,18.94-15.2,24.23-6.84,3.78-13.91-.15-19-9.38-3.39-6.16-3.49-8.34-4-9.37-.38-.68-.74-.93-1.08-.74-1.39.75-1.06,4.15-1.59,4.44a1.09,1.09,0,0,1-1.49-.29c-.48-.86,2-10,4-16.26,4.72-14.88,12.9-24.75,20.6-29,6.5-3.59,13-.71,16.78,6.13C293.76,243.35,293.9,255.33,291.61,263.29ZM274.75,232c-12,6.62-15.33,38.16-7.4,52.53,2.65,4.79,5.55,5.2,7.95,3.87,13.51-7.45,18.27-36.43,9.69-52C282.71,232.26,279,229.61,274.75,232Z"/><path class="cls-3" d="M321.64,265.47c-.26-8.12,6.59-52.74,3.67-58.05a2.76,2.76,0,0,0-4-1.15c-4.78,2.63-7.43,8.78-10.86,23.18-3.24,13.16-2.69,13.75-3.37,14.13-.51.29-1,.13-1.42-.55-.28-.51,1.35-7.66,2.16-11.45,2.94-14.12,6.37-24.05,13.05-27.74,4.44-2.45,8.11-.25,10.95,4.89,3.78,6.84,2.15,20.47,1.12,27.51l.53.15c3.17-10,9.63-44.82,18.35-49.63,4.3-2.37,8.62,1,10.6,4.62,3.21,5.82,2.53,12.68,1.8,18.21-1.94,14.69-2.31,22.93-.79,25.67.95,1.71,2.92,2.84,4.62,1.9,3.93-2.17,7.73-12.29,10.58-23.7,3.62-14,2.66-14.18,3.69-14.74a.84.84,0,0,1,1.14.47c.49.86-2.87,15-3.88,18.45-3.37,11.67-6.8,19.6-10.73,21.77-5.13,2.83-10.18-.64-13.57-6.8-7.57-13.68,3.07-38.09.52-42.7-.66-1.2-2-1.59-3.53-.74-8.2,4.54-19.06,58.08-19.74,69Z"/><path class="cls-3" d="M392,123.09l10.24-6.54-1.66,23.24,20-11a1.1,1.1,0,0,1,1.42.56c.3.51.42,1.12-.28,1.5l-21.21,11.71c-.11,12.34-5.78,66.36-1.44,74.22.93,1.71,2.44,2,4.66.78,5.13-2.83,8.67-10.59,12.11-22.53,4-13.38,3.53-16.68,4.38-17.16.69-.37,1.05-.12,1.43.57.27.5-1.7,9.86-3.48,15.52-4.69,16.2-8.85,23.19-13.64,25.84-5.91,3-10.51,0-12.68-3.94-5.38-9.76-4.18-21.35-2-41.29l-.54-.16c-1.06,5.73-2.12,9.89-3.81,17.74-.59,2.56-2.09,10.75-2.61,11s-.95.3-1.24-.2c-.38-.69-.08-1.76,2.45-13a356.75,356.75,0,0,0,7.2-42.36L385.06,151c-.68.38-1.14,0-1.42-.56a1.41,1.41,0,0,1,.11-1.4l7.2-4Z"/><path class="cls-3" d="M469.74,122.79c-1.59,8.47-4.62,49.88-1.31,55.86.76,1.37,2,2,4.22.79,5.13-2.83,9.48-16.83,13-33.94.74-3.53.71-4,1.06-4.16a1.27,1.27,0,0,1,1.59.46c.18.35-1.9,9.53-3.46,16-3.35,12.56-6.92,21.45-11.52,24s-8.87,1.76-14.06-7.65c-.66-1.2-1.05-2.32-1.52-3.18-2.29,8-6.5,23-13,26.6-8.73,4.81-15.12-1.93-19.38-9.62a50.1,50.1,0,0,1-3.58-8.52c-.34.19-.41.9-.75,1.09s-1-.15-1.17-.49c-.37-.68.05-1.13.77-5.1,3-16.4,12-32.76,23.85-39.27,5.14-2.83,9.44-.3,12,4.31a19,19,0,0,1,2,4.91l.53.15c.78-13.16-.79-15.19,2.71-17.34Zm-26.16,72.7c9.91-5.47,17.71-41.91,10.73-54.57-1.9-3.43-5.12-5.22-8.72-3.24-13.86,7.65-15.77,42.19-9,54.51C438.41,195.44,440.83,197,443.58,195.49Z"/><path class="cls-3" d="M521.8,113.48c-3.09,1.71-5.42.32-6.65-1.92-2.45-4.44,3.62-5.56,1.55-9.33-.76-1.37-2.8-2.24-5.54-.73-10.27,5.67-17.68,32.29-6.92,51.8,2.47,4.44,5.93,5.44,10.88,2.71,6-3.31,11.91-12.38,15.1-24.41,3.94-14.68,3.44-16.41,4-16.7a1.14,1.14,0,0,1,1.6.47c.27.5-.83,5.8-2.33,11.55-4.27,17.76-9.83,27.07-18.39,31.8-10.61,5.86-19.37-3.15-23.89-11.37a30.22,30.22,0,0,1-2.06-4.89.39.39,0,0,0-.51-.16c-.52.29-.49,1.16-.83,1.35a.94.94,0,0,1-1.34-.38c-.17-.35-.21-1.23,1.78-10.58,3.41-16.84,10.52-27,20.1-32.3,6.67-3.68,12.73-3.24,15.75,2.24C525.85,105.89,525.72,111.32,521.8,113.48Z"/><path class="cls-3" d="M544.15,39.1l10.23-6.54L552.71,55.8l20-11a1.1,1.1,0,0,1,1.42.56c.29.51.4,1.12-.28,1.5l-21.21,11.7c-.11,12.35-5.79,66.37-1.44,74.23.93,1.71,2.44,2,4.66.78,5.13-2.83,8.65-10.58,12.1-22.54,4-13.36,3.54-16.67,4.39-17.15.68-.37,1-.12,1.42.56.28.52-1.7,9.87-3.47,15.54-4.7,16.19-8.85,23.18-13.65,25.83-5.92,3-10.5,0-12.67-3.95-5.38-9.76-4.19-21.34-2-41.28l-.54-.16c-1.07,5.73-2.12,9.88-3.82,17.74-.6,2.56-2.09,10.75-2.61,11s-.94.3-1.23-.21c-.39-.69-.08-1.75,2.45-13a361.1,361.1,0,0,0,7.19-42.37L537.25,67c-.69.38-1.15,0-1.43-.56a1.44,1.44,0,0,1,.12-1.4l7.2-4Z"/></svg>