<svg id="Layer_1" data-name="Layer 1" xmlns="http://www.w3.org/2000/svg" viewBox="0 0 276.05 177.57"><defs><style>.cls-1{fill:#f1e872;}.cls-2{fill:#ed1c24;}</style></defs><title>Artboard 1</title><ellipse class="cls-1" cx="138.03" cy="88.78" rx="135.59" ry="70.08" transform="translate(-22.04 52.56) rotate(-20)"/><path class="cls-2" d="M164.87,162.54C129,175.61,92.44,180.38,62,176,31,171.48,10,158,2.71,138s.2-43.84,21.05-67.18C44.23,47.92,75.28,28.1,111.18,15S183.61-2.81,214,1.6c31,4.49,52,18,59.3,37.93s-.2,43.84-21,67.18C231.82,129.65,200.77,149.47,164.87,162.54Zm-52-142.87C40.82,45.9-6.51,98.24,7.36,136.34s83.77,47.78,155.82,21.55S282.56,79.33,268.69,41.22,184.92-6.55,112.87,19.67Z"/><path class="cls-2" d="M87.07,88.89c-6,2.19-8-1-10.42-7.67-2.21-6.06-3.38-10.38,3.06-12.72,4.14-1.51,6.82-.71,8.41,3.67l.19.52-4,1.47-.15-.41c-.54-1.49-1.38-3.11-3.41-2.37-2.46.89-1.65,3.63-.08,7.93,2,5.52,3,7.57,5.36,6.72s1.72-2.74,1.06-4.56L86.89,81,91,79.5l.22.6C92.86,84.69,91.5,87.27,87.07,88.89Z"/><path class="cls-2" d="M102.36,83.32c-6.14,2.23-8.08-1.16-10.38-7.46-2.35-6.47-3.31-10.62,3-12.94,6.5-2.36,8.3,1.33,10.7,7.93C108,77.13,108.74,81,102.36,83.32ZM96.07,65.79c-2.73,1-1.66,3.85-.06,8.26,1.75,4.82,2.68,7.36,5.38,6.37s1.75-3.6,0-8.44C99.76,67.51,98.8,64.8,96.07,65.79Z"/><path class="cls-2" d="M119.84,76.5,109.63,61.9l5.89,16.17L112,79.34l-7.12-19.55,6-2.2,10.23,14.63L115.27,56l3.49-1.27,7.12,19.55Z"/><path class="cls-2" d="M130.57,53.75l6.05,16.64-4.11,1.49-6-16.63L122,56.86,121,53.94l13-4.71L135,52.15Z"/><path class="cls-2" d="M152,64.8l-2.66-3.93-5.65,2.05.49,4.72-4.11,1.5-1.76-21.5,5.46-2,12.48,17.6Zm-10-15,1.29,10,4.25-1.55Z"/><path class="cls-2" d="M164.19,60.82c-6,2.19-8-1-10.42-7.67-2.21-6.06-3.38-10.38,3.06-12.72,4.14-1.51,6.82-.71,8.41,3.68l.19.51-4,1.47-.15-.41c-.54-1.49-1.38-3.11-3.41-2.37-2.46.89-1.65,3.63-.08,7.93,2,5.52,3,7.58,5.36,6.72s1.72-2.74,1.06-4.56l-.17-.48,4.08-1.49.22.6C170,56.62,168.62,59.2,164.19,60.82Z"/><path class="cls-2" d="M174.4,37.8l6,16.64-4.11,1.49L170.29,39.3l-4.44,1.61L164.79,38l13-4.71,1.07,2.92Z"/><path class="cls-2" d="M96.7,115.36c-6,2.19-8-1-10.42-7.67-2.2-6-3.37-10.38,3.06-12.72,4.14-1.51,6.82-.7,8.42,3.68l.18.51-4,1.47-.14-.41c-.55-1.48-1.38-3.11-3.41-2.37-2.46.89-1.65,3.63-.08,7.93,2,5.52,3,7.58,5.35,6.72s1.73-2.74,1.07-4.55l-.18-.49,4.09-1.49.21.6C102.5,111.17,101.14,113.74,96.7,115.36Z"/><path class="cls-2" d="M112,109.79c-6.14,2.24-8.08-1.16-10.37-7.46-2.36-6.47-3.32-10.62,3-12.93s8.29,1.33,10.7,7.93C117.64,103.6,118.38,107.47,112,109.79ZM105.7,92.26c-2.73,1-1.66,3.86,0,8.26,1.75,4.82,2.67,7.36,5.38,6.38s1.75-3.61,0-8.45C109.39,94,108.44,91.27,105.7,92.26Z"/><path class="cls-2" d="M129.48,103l-10.21-14.6,5.88,16.17-3.49,1.27-7.11-19.55,6-2.2L130.8,98.69l-5.9-16.2,3.49-1.27,7.12,19.55Z"/><path class="cls-2" d="M140.21,80.23l6,16.63-4.11,1.5L136.1,81.72l-4.44,1.62-1.07-2.92,13-4.72,1.06,2.92Z"/><path class="cls-2" d="M161.62,91.27,159,87.34l-5.65,2.06.49,4.72-4.11,1.49-1.76-21.5,5.46-2,12.47,17.61Zm-10-15,1.3,10,4.24-1.55Z"/><path class="cls-2" d="M173.82,87.29c-6,2.19-8-1-10.42-7.67-2.2-6.05-3.38-10.38,3.06-12.72,4.14-1.51,6.82-.7,8.42,3.68l.18.51-4,1.47-.14-.41c-.55-1.48-1.38-3.11-3.41-2.37-2.46.89-1.65,3.63-.09,7.93,2,5.52,3,7.58,5.36,6.72s1.73-2.74,1.07-4.55l-.18-.49,4.09-1.49.21.6C179.62,83.1,178.26,85.67,173.82,87.29Z"/><path class="cls-2" d="M184,64.28l6.06,16.63L186,82.41l-6.06-16.64-4.44,1.62-1.06-2.92,13-4.72,1.06,2.92Z"/><path class="cls-2" d="M106.34,141.83c-6,2.2-8-1-10.42-7.66-2.21-6.06-3.38-10.38,3.06-12.73,4.14-1.5,6.82-.7,8.41,3.68l.19.52-4,1.46-.15-.41c-.54-1.48-1.38-3.11-3.41-2.37-2.46.9-1.64,3.63-.08,7.94,2,5.51,3,7.57,5.36,6.71s1.72-2.74,1.06-4.55l-.17-.49,4.08-1.48.22.59C112.13,137.64,110.77,140.22,106.34,141.83Z"/><path class="cls-2" d="M121.63,136.27c-6.14,2.23-8.08-1.17-10.38-7.47-2.35-6.46-3.31-10.62,3-12.93s8.3,1.33,10.7,7.93C127.28,130.07,128,133.94,121.63,136.27Zm-6.29-17.53c-2.73,1-1.66,3.85-.06,8.26,1.75,4.81,2.68,7.35,5.38,6.37s1.75-3.61,0-8.45C119,120.46,118.07,117.74,115.34,118.74Z"/><path class="cls-2" d="M139.12,129.44l-10.22-14.6L134.79,131l-3.49,1.27-7.12-19.56,6-2.19,10.23,14.62-5.9-16.2,3.49-1.27,7.12,19.56Z"/><path class="cls-2" d="M149.84,106.7l6.06,16.63-4.11,1.5-6.06-16.63-4.44,1.61-1.06-2.92,13-4.72,1.06,2.92Z"/><path class="cls-2" d="M171.25,117.75l-2.66-3.94-5.65,2.06.49,4.72-4.11,1.5-1.76-21.51,5.47-2L175.5,116.2Zm-10-15,1.29,10,4.25-1.54Z"/><path class="cls-2" d="M183.46,113.76c-6,2.2-8-1-10.42-7.66-2.21-6.06-3.38-10.38,3.06-12.73,4.14-1.5,6.82-.7,8.41,3.68l.19.52-4,1.46-.15-.4c-.54-1.49-1.38-3.12-3.41-2.38-2.46.9-1.65,3.63-.08,7.94,2,5.51,3,7.57,5.36,6.71s1.72-2.74,1.06-4.55l-.17-.49,4.08-1.48.22.59C189.25,109.57,187.89,112.15,183.46,113.76Z"/><path class="cls-2" d="M193.67,90.75l6.05,16.63-4.11,1.5-6.05-16.64-4.44,1.62-1.06-2.92L197,86.22l1.07,2.92Z"/><path class="cls-1" d="M114.06,22.93C184.43-2.69,252.2,6,265.44,42.41S232.37,129,162,154.64,23.85,171.53,10.61,135.16,43.69,48.54,114.06,22.93m-2-5.58C77.12,30.06,46.79,49.11,26.62,71,5.5,93.9-2.17,117.41,5,137.19S33.22,170.05,64.12,174c29.52,3.8,65-1.11,99.91-13.81s65.24-31.76,85.41-53.64c21.11-22.91,28.78-46.42,21.58-66.2S242.83,7.52,211.93,3.54c-29.51-3.8-65,1.11-99.9,13.81Z"/><path class="cls-2" d="M138.9,15.26l.62,1.71c36.74-4,70.35,12.14,81.13,41.74s-4.62,63.56-35.32,84.13l.62,1.71c56.56-27.25,91.16-70.08,79.49-102.14S199.73-.22,138.9,15.26Z"/><path class="cls-2" d="M136.53,160.6c-36.73,4-70.35-12.14-81.12-41.74S60,55.3,90.72,34.73L90.1,33C33.54,60.27-1.06,103.1,10.61,135.16s65.71,42.63,126.55,27.15Z"/><path class="cls-1" d="M247.07,55.41a47.74,47.74,0,0,1,.48,14.4,57,57,0,0,1-3.46,13.76,55.94,55.94,0,0,0,2-13.85,44.93,44.93,0,0,0-1.89-13.6l.15,0a2.56,2.56,0,0,0,2.74-.75Z"/><path class="cls-1" d="M222.41,24.47A56.79,56.79,0,0,1,234,32.83a47.28,47.28,0,0,1,9,11.43h0a2.56,2.56,0,0,0-2.58,1.18l-.08.13A45.33,45.33,0,0,0,233,33.85,56.59,56.59,0,0,0,222.41,24.47Z"/><path class="cls-1" d="M246.59,49.27l-.73,1.14a4.83,4.83,0,0,0-.58,1.24l-.4,1.29-1.14-.73a5.19,5.19,0,0,0-1.24-.58l-1.29-.4.73-1.14a5.12,5.12,0,0,0,.58-1.23l.4-1.3,1.14.73a4.77,4.77,0,0,0,1.23.58Z"/><path class="cls-1" d="M249.94,46.47l6.82-.9L251,49.26v0a2.54,2.54,0,0,0-.95-2.68Z"/><path class="cls-1" d="M238.12,53.93l-6.81.91,5.8-3.69,0,.07a2.56,2.56,0,0,0,1,2.67Z"/><path class="cls-1" d="M29.7,121.68a47.73,47.73,0,0,1-.48-14.4,57,57,0,0,1,3.46-13.75,55.87,55.87,0,0,0-2,13.85A45.29,45.29,0,0,0,32.58,121l-.14,0a2.57,2.57,0,0,0-2.74.75Z"/><path class="cls-1" d="M54.36,152.63a57.17,57.17,0,0,1-11.62-8.36,47.33,47.33,0,0,1-9-11.44h0a2.54,2.54,0,0,0,2.58-1.18l.08-.13a45.16,45.16,0,0,0,7.39,11.72A56.29,56.29,0,0,0,54.36,152.63Z"/><path class="cls-1" d="M30.18,127.82l.73-1.14a4.68,4.68,0,0,0,.58-1.24l.4-1.29,1.14.73a4.83,4.83,0,0,0,1.24.58l1.29.4L34.83,127a5.19,5.19,0,0,0-.58,1.24l-.4,1.29-1.14-.73a5.12,5.12,0,0,0-1.23-.58Z"/><path class="cls-1" d="M26.83,130.62l-6.82.9,5.8-3.69v.06a2.55,2.55,0,0,0,.95,2.68Z"/><path class="cls-1" d="M38.65,123.16l6.81-.9L39.66,126l0-.07a2.57,2.57,0,0,0-1-2.68Z"/></svg>