<svg id="Layer_1" data-name="Layer 1" xmlns="http://www.w3.org/2000/svg" viewBox="0 0 274.45 158.91"><defs><style>.cls-1{fill:#f4c6dd;}.cls-2{fill:#231f20;}.cls-3{fill:#fff;}</style></defs><title>Artboard 3</title><ellipse class="cls-1" cx="137.23" cy="79.45" rx="144" ry="66.34" transform="translate(-18.9 51.73) rotate(-20)"/><path class="cls-2" d="M96.05,136.91c-.53.19-1.06.37-1.6.54-8.85,2.75-18.65,2.07-26.21-1.82A67.28,67.28,0,0,0,62.7,143c-.76,1.18-1.08,1.66-1.77,2a2.43,2.43,0,0,1-.4.18l-.13,0A3,3,0,0,1,58,145h0l-.14-.08h0l-.13-.07-.15-.08-.14-.08s-.07,0-.14-.07h0l-.15-.08-.14-.07h0l-.14-.08h0l-.15-.08-.14-.08-.14-.07-.14-.08h0a.54.54,0,0,1-.15-.08h0L56,144l-.14-.07h0l-.15-.08-.15-.08h0l-.14-.08-.14-.07h0l-.16-.08-.13-.07h0l-.15-.08-.15-.08h0l-.15-.07h0l-.15-.08-.14-.07-.15-.08h0l-.14-.08h0l-.15-.08h0l-.15-.08h0l-.14-.08h0l-.14-.07-.15-.08h0l-.13-.07h0l-.15-.08h0l-.14-.07-.15-.08-.14-.08-.15-.07h0l-.15-.08-.14-.07h0l-.15-.08h0l-.14-.07-.15-.08-.14-.07h0l-.15-.08h0l-.14-.07-.14-.08-.15-.08h0l-.15-.08A2.91,2.91,0,0,1,49.59,140c-.84-1.55-.26-3.2,2.49-7.06,1.07-1.49,2.43-3.24,3.77-4.86A24,24,0,0,1,52,123a28.41,28.41,0,0,1-2.37-5.77,16.63,16.63,0,0,1-7-1.92l-7.17-3.76A11.1,11.1,0,0,1,31,107.06,15,15,0,0,1,31,92.41,26.88,26.88,0,0,1,42,81.67a34.37,34.37,0,0,1,4.91-2.22c.58-.21,1.16-.41,1.76-.6A61.54,61.54,0,0,1,63.8,76.5,45.6,45.6,0,0,1,76.64,66a20,20,0,0,1,2.67-1.24l.6-.2a6.75,6.75,0,0,1,5.7.35l3.12,1.64.16.08,1.7.9h0a.74.74,0,0,1,.15.08l2,1.06A5.68,5.68,0,0,1,95,70.93c2,3.61,1,7.74-1.4,13.15l1.33.7a3.37,3.37,0,0,1,1.5,1.35,3,3,0,0,1-1.21,4.15,4,4,0,0,1-.47.21l-.14.05a3.87,3.87,0,0,1-2.75-.32c-.28-.12-.64-.26-1.12-.43-6.08,11.45-18.13,19.61-25.09,23.59a19.6,19.6,0,0,0,.61,4.42,64.54,64.54,0,0,1,9.69-6.94,36.31,36.31,0,0,1,5.14-2.35q.75-.27,1.5-.51a23.73,23.73,0,0,1,10.61-1c-.26-.87-.08-2.41,1.58-7.74,1.86-5.87,5.2-10.48,9.16-12.67a7.18,7.18,0,0,1,1.1-.5l.32-.11a6.58,6.58,0,0,1,5.19.51l2.83,1.49a17.71,17.71,0,0,1,1.62.85h0c.2.09.49.24.94.48l.1-.47c1.27-6.06,2.83-10.49,6.32-12.42a6.23,6.23,0,0,1,.84-.38l.25-.09a4.9,4.9,0,0,1,3.81.35l2.3,1.21c1.47-4.3,2.94-6.68,4.73-7.67a4.8,4.8,0,0,1,.73-.33l.22-.08a5,5,0,0,1,4,.46l6.14,3.23.07-.34c.65-2.72,1.55-7.17,2.2-11.72l-.07,0h0l-.44-.23h0a.54.54,0,0,1-.15-.08h0l-.15-.08a3,3,0,0,1-1.31-1.3,3.07,3.07,0,0,1,1.07-4l1.51-.83.36-7.85a1,1,0,0,1,.46-.79l7.41-4.74.12,0a1,1,0,0,1,.84.08l.24.14a.66.66,0,0,1,.19.09l.23.13a.72.72,0,0,1,.2.09l.26.15.17.07,0,0,.13.06.13.08L159,42h0l.14.07.15.09.12.06.15.07.16.1a.38.38,0,0,1,.13.06l.14.08.15.07.28.16.15.07.24.13a.66.66,0,0,1,.19.09l.23.13.2.1.24.13.19.1h0l.13.06.13.08.16.08a.86.86,0,0,1,.14.07l.13.08a.8.8,0,0,1,.16.08h0l.13.07.14.08.14.07.14.08.16.08.27.15a.52.52,0,0,1,.15.07l.28.15a.61.61,0,0,1,.14.07l.29.15a1,1,0,0,1,.48.91l-.16,2.3,0,0,.29.16.13.07.17.08h0l.15.08h0l.14.08h0l.15.09.14.07.14.08.15.07h0l.14.08h0l.14.08h0l.15.08.14.07h0l.29.15.27.15.16.08h0l.15.08h0l.14.08.14.07h0l.15.08h0l.15.08h0a2.43,2.43,0,0,1,.27.14l.15.08a.84.84,0,0,1,.14.08l.14.07.16.08.08,0,.63-.37a7.84,7.84,0,0,1,.94-.43l.28-.09a5.31,5.31,0,0,1,3.39,0,4.06,4.06,0,0,1,1.94-2.52l6.24-3.79.12-.05a1,1,0,0,1,.84.09.61.61,0,0,1,.18.09l.13.07.13.06.18.1.08,0,.16.08a.78.78,0,0,1,.2.11l.07,0L185,44l.19.1.07,0,.2.1.15.09.09,0a.84.84,0,0,1,.21.11l.13.07.09,0a.91.91,0,0,1,.22.11l0,0,.18.08.18.1.12.07a.52.52,0,0,1,.13.06l.19.1a17,17,0,0,1,7.37-8.65,10.58,10.58,0,0,1,1.58-.72l.43-.15a6.61,6.61,0,0,1,5.2.34l2.89,1.52c.4-1.9,1-5.24,1.57-8.85l-.06,0h0l-.14-.08h0a.74.74,0,0,1-.15-.08h0a.4.4,0,0,1-.14-.07h0l-.14-.07h0l-.15-.09a2.94,2.94,0,0,1-1.33-1.31,3.06,3.06,0,0,1,1.09-4l1.5-.82.36-7.86a1,1,0,0,1,.46-.78l7.41-4.74.12-.05a1,1,0,0,1,.85.08l.26.14.17.08.18.11.09,0,.15.08h0l.14.07.12.07.15.07h0l.13.07.12.07.16.08.32.17.12.06.09.06a.66.66,0,0,1,.19.09l.24.13.2.1.15.08.12.07.15.07.25.14a.61.61,0,0,1,.18.09l.18.1.08,0,.16.07.19.12.09,0a.8.8,0,0,1,.16.08h0l.15.07.11.07.16.07h0l.13.06.13.08.16.08.11.07.18.08.16.09.16.08.15.09.1.05.09,0a1.21,1.21,0,0,1,.2.09l.24.14a.82.82,0,0,1,.19.09l.19.11.09.05a1,1,0,0,1,.48.92l-.17,2.28.21.11h0l.14.07.14.08.29.15h0l.15.07.13.08s.08,0,.16.08h0l.29.15.14.08.14.07h0l.15.08.14.07.28.15h0l.15.08.43.23a.81.81,0,0,1,.14.07l.29.15h0l.15.08h0l.15.07.15.08h0l.15.08h0l.14.07h0l.14.07h0l.13.08.16.08.14.07h0l.15.08h0l.15.08h0l.13.07.14.08.16.08h0l.27.14a1.07,1.07,0,0,1,.16.09h0l.11.06a2.93,2.93,0,0,1,1.32,1.25,3.08,3.08,0,0,1,.32,2.34,2.93,2.93,0,0,1-1.42,1.78l-6.89,3.8c-.08,1.47-.22,3.48-.36,5.61l0,.45.06,0,.16.08h0l.14.07h0l.16.08h0l.14.07h0l.29.16h0l.14.08h0a.41.41,0,0,1,.15.08h0l.14.07h0l.14.08h0L224,35h0l.15.08h0l.13.08.16.08.28.15h0a.74.74,0,0,1,.15.08h0l.29.15h0l.15.08h0a.54.54,0,0,1,.15.08h0l.14.08.15.07h0l.15.08h0l.28.15.14.07h0l.15.08h0l.14.08h0l.14.08h0l.16.08h0l.14.07h0l.13.07.13.07a1.51,1.51,0,0,1,.18.09l.28.15h0l.15.08h0l.13.07h0l.16.08h0l.14.07.28.15h0l.14.08h0l.15.08h0l.14.08h0l.14.07h0l.15.08a3,3,0,0,1,1.3,1.29c.72,1.34-.21,5.1-1.13,8-1.92,6.65-3.8,10-6.47,11.45a7.68,7.68,0,0,1-.91.4l-.32.11a5.85,5.85,0,0,1-4.17-.21,6,6,0,0,1-.57-.28l-2.73-1.44c-1.71,5.24-4,8.42-7.34,10.27a8.64,8.64,0,0,1-1.24.57c-.13,0-.25.09-.38.12a7.53,7.53,0,0,1-5.81-.54l-3.1-1.63c-1.67,6.1-3.3,9.11-5.56,10.36a6.36,6.36,0,0,1-1,.46l-.28.1a5,5,0,0,1-3.9-.33l-1.28-.67c-1.34,3.47-2.79,5.55-4.55,6.52a8.23,8.23,0,0,1-1.14.52l-.34.11a6.43,6.43,0,0,1-5-.44l-3-1.58c-1.78,5.67-3.55,8.58-6,9.94a6.57,6.57,0,0,1-.91.41l-.31.1A5.81,5.81,0,0,1,159,91.2a5.06,5.06,0,0,1-.58-.28l-2.67-1.4c-1.59,5.23-3.08,7.85-5.08,9a5.61,5.61,0,0,1-.83.38l-.25.08a5.42,5.42,0,0,1-4.33-.49l-.46-.25-5.41-2.84a78.5,78.5,0,0,0-1.38,8.22l-.05.79a1,1,0,0,1-.44.76l-7.32,4.94-.14.06a1,1,0,0,1-.78,0l-.12,0a.9.9,0,0,1-.21-.08,1.1,1.1,0,0,1-.21-.14h0a1,1,0,0,1-.22-.08l-.19-.13-.22-.08a.71.71,0,0,1-.22-.15.92.92,0,0,1-.23-.09.86.86,0,0,1-.2-.13.85.85,0,0,1-.22-.09,1.4,1.4,0,0,0-.44-.23.9.9,0,0,1-.2-.14l-.22-.08a1.24,1.24,0,0,1-.23-.17l-.11-.06,0,0-.09,0a.84.84,0,0,1-.25-.09,1.07,1.07,0,0,1-.19-.13h0l-.23-.08-.2-.14h0a1.09,1.09,0,0,1-.23-.09l-.19-.13a1.17,1.17,0,0,1-.24-.09.9.9,0,0,1-.2-.14l-.22-.08a1.37,1.37,0,0,1-.21-.15l-.14,0a12.48,12.48,0,0,1-2,1.36c-1.27,4.75-3.5,8-6.83,9.79a7.18,7.18,0,0,1-1,.47l-.31.1a6.47,6.47,0,0,1-3.62.08,12.33,12.33,0,0,1-1.57,8.23,20,20,0,0,1-7.46,7.61A34.18,34.18,0,0,1,96.05,136.91ZM75.11,129a21.55,21.55,0,0,0,7.11-1c.37-.12.75-.24,1.13-.38a28,28,0,0,0,3.88-1.77,18.67,18.67,0,0,0,7.45-7.64l-1,.28q-.87.27-1.77.6a57.73,57.73,0,0,0-8,3.67A53.9,53.9,0,0,0,75.11,129ZM44,105a18.67,18.67,0,0,0,5.09-.35,44.65,44.65,0,0,1,4.74-13.7c-.83.39-1.65.81-2.48,1.27C42.17,97.28,42.69,102.25,44,105ZM74.92,86.84c-.52.82-1.12,1.8-1.77,2.9a34,34,0,0,0,2.17-2.89Z"/><path class="cls-3" d="M215.31,9.36h0a.21.21,0,0,1,.19,0,.1.1,0,0,1,.06,0,.16.16,0,0,1,.09,0,.12.12,0,0,1,.05,0l.09,0,0,0a.17.17,0,0,1,.1,0l.07.05.08,0s0,0,0,.05l.09,0a.08.08,0,0,1,0,0,.17.17,0,0,1,.1,0,.1.1,0,0,1,0,0l.1,0,.06.06a.11.11,0,0,1,.08,0l0,0,.1,0a.1.1,0,0,1,0,0,.17.17,0,0,1,.1,0l.06,0,.08,0s0,0,0,0a.17.17,0,0,1,.1,0l.06.05a.11.11,0,0,1,.08,0l.06,0,.09,0s0,0,0,.05l.09,0a.18.18,0,0,1,.07.05l.06,0,.05,0a.25.25,0,0,1,.11,0l.06.05a.11.11,0,0,1,.08,0l.06,0a.09.09,0,0,1,.07,0s0,0,.05,0a.23.23,0,0,1,.11,0l.06,0,.08,0s0,0,0,0a.12.12,0,0,1,.09,0,.1.1,0,0,1,.05,0,.17.17,0,0,1,.1,0l.06.05a.19.19,0,0,1,.08,0,.2.2,0,0,1,.07.06l.06,0,0,0,.12,0,.06.06a.11.11,0,0,1,.08,0l.06,0,.09,0,0,0a.19.19,0,0,1,.1,0l.06,0,.08,0,.06,0,.09,0,0,0,.1,0,.05,0,.09,0,.07.06.08,0,0,0,.1,0s0,0,.05.05a.16.16,0,0,1,.09,0,.18.18,0,0,1,.07.05l.07,0a.1.1,0,0,1,.05,0,.19.19,0,0,1,.1,0l.06,0,.07,0s0,0,0,0a.2.2,0,0,1,.11,0l.06,0,.09,0,.05,0,.09,0a.12.12,0,0,1,.05.05.17.17,0,0,1,.1,0,.12.12,0,0,1,0,.05l.09,0,.06.05.07,0,0,0a.2.2,0,0,1,.11,0,.18.18,0,0,1,.07.05l.08,0,.06.05.07,0,0,0a.21.21,0,0,1,.11,0,.18.18,0,0,1,.07,0l.08,0,.06,0,.08,0a.25.25,0,0,1,.12.22l-.2,2.77,0,0,.15.08.14.07.14.07.15.08.14.08a.61.61,0,0,1,.14.07l.15.08.14.07.14.08.14.07.15.08.14.07.14.08a.74.74,0,0,1,.15.08l.14.07.14.07.15.08.14.08.14.07.15.08a.61.61,0,0,1,.14.07l.15.08.14.07.14.08a.61.61,0,0,1,.14.07l.15.08.14.07.14.08.15.07.14.08.14.08.15.07.14.08a.61.61,0,0,1,.14.07l.15.08.14.07.14.08.15.07.14.08.14.07.15.08.14.07.15.08.1.06a2.22,2.22,0,0,1,1,1,2.32,2.32,0,0,1,.25,1.77,2.21,2.21,0,0,1-1.07,1.33l-7.25,4c-.06,1.46-.21,3.57-.38,6l-.06.93.21.12.12.06.15.08.14.07.14.08.14.07.15.08.14.07.14.08.15.07.14.08.15.08.14.07a1.15,1.15,0,0,1,.14.08l.14.07.14.07.15.08.15.08.14.07.14.08a.61.61,0,0,1,.14.07l.15.08.14.07.15.08.14.07.14.08a.7.7,0,0,1,.14.08l.15.07.14.07.14.08.15.08.14.07.14.07.15.08.14.08.14.07.15.08.14.07.14.08.15.07.14.08.14.07.15.08.14.08a.61.61,0,0,1,.14.07l.15.08.14.07.14.08.15.07.14.08a.56.56,0,0,1,.15.08,2.28,2.28,0,0,1,1,1c.67,1.24-.74,6-1.19,7.44-1.87,6.45-3.64,9.65-6.13,11a5.56,5.56,0,0,1-.8.35l-.28.1a5.12,5.12,0,0,1-3.65-.18c-.17-.07-.34-.16-.51-.25l-3.54-1.86c-1.67,5.54-3.91,8.84-7.25,10.69a8.92,8.92,0,0,1-1.14.52l-.34.11a6.89,6.89,0,0,1-5.25-.49l-3.93-2.07-.09.38c-1.66,6.23-3.21,9.25-5.34,10.43a6,6,0,0,1-.9.41l-.24.08a4.25,4.25,0,0,1-3.34-.27l-.15-.08h0l-.14-.07h0l-.15-.08-.16-.08-.84-.45h0l-.29-.15h0l-.3-.15c-1.35,3.77-2.78,6-4.5,6.92a6.82,6.82,0,0,1-1,.47l-.3.1a5.74,5.74,0,0,1-4.43-.39l-3.8-2c-1.8,6-3.53,9-5.94,10.37a7.93,7.93,0,0,1-.8.36l-.28.09a5.09,5.09,0,0,1-3.65-.18,4.81,4.81,0,0,1-.51-.25l-3.49-1.84c-1.61,5.54-3.1,8.35-5,9.4a5.28,5.28,0,0,1-.73.33l-.22.07a4.64,4.64,0,0,1-3.73-.43l-.46-.24-6.3-3.31a86.35,86.35,0,0,0-1.61,9.29l-.05.79a.22.22,0,0,1-.1.18l-7.25,4.89-.06,0h0a.23.23,0,0,1-.18,0l-.06,0-.09,0,0,0a.3.3,0,0,1-.13,0,.76.76,0,0,1-.09-.09h0l-.06,0-.09,0-.05,0-.12,0a.22.22,0,0,1-.1-.09h0l-.06,0-.08,0,0,0a.28.28,0,0,1-.13,0,.19.19,0,0,1-.1-.1h0a.15.15,0,0,1-.06,0l-.08,0,0,0a.22.22,0,0,1-.14,0,.18.18,0,0,1-.1-.09h0a.18.18,0,0,1-.07-.05l-.07,0,0,0a.32.32,0,0,1-.14,0,.18.18,0,0,1-.1-.09h0a.18.18,0,0,1-.07-.05s0,0-.07,0l0,0a.32.32,0,0,1-.14,0,.17.17,0,0,1-.1-.1h0a.18.18,0,0,1-.07,0l-.07,0,0,0a.23.23,0,0,1-.14,0,.2.2,0,0,1-.09-.09h0a.18.18,0,0,1-.07,0l-.07,0-.07-.05-.07,0a.18.18,0,0,1-.07,0l-.08,0,0,0a.23.23,0,0,1-.12,0,.22.22,0,0,1-.1-.09h0a.18.18,0,0,1-.07,0l-.08,0a.1.1,0,0,1,0,0,.19.19,0,0,1-.13,0,.2.2,0,0,1-.09-.09h0l-.07,0a.13.13,0,0,1-.08,0l0,0a.28.28,0,0,1-.13,0A.2.2,0,0,1,125,107h0a.18.18,0,0,1-.07-.05l-.08,0,0,0a.31.31,0,0,1-.13,0,.24.24,0,0,1-.1-.1h0l-.06,0-.07,0,0,0a.23.23,0,0,1-.14,0,.32.32,0,0,1-.1-.1h0l-.06,0-.07,0,0,0a.23.23,0,0,1-.14,0,.2.2,0,0,1-.09-.09h0l-.07,0-.06,0,0,0h-.09a11.88,11.88,0,0,1-2.29,1.65l-.2.11c-1.2,4.71-3.34,7.87-6.55,9.64a8.42,8.42,0,0,1-.92.42l-.27.09a5.88,5.88,0,0,1-4.54-.45c1,2.68.67,5.88-1.09,9.11a19.16,19.16,0,0,1-7.16,7.32,33.9,33.9,0,0,1-4.62,2.09c-.51.18-1,.36-1.56.52-8.69,2.71-18.31,2-25.71-1.8l-.46-.24a66.24,66.24,0,0,0-6,7.93c-.74,1.12-1,1.5-1.5,1.78a2,2,0,0,1-.3.14l-.1,0a2.23,2.23,0,0,1-1.8-.21l-.14-.08a.61.61,0,0,1-.14-.07.7.7,0,0,1-.14-.08l-.15-.07-.14-.08-.15-.07-.14-.08-.14-.07-.14-.08-.15-.07-.14-.08a.61.61,0,0,1-.14-.07l-.15-.08-.14-.07-.15-.08-.14-.07-.14-.08-.14-.07-.15-.08-.14-.08a.61.61,0,0,1-.14-.07l-.15-.08-.14-.07-.14-.08-.14-.07-.15-.08-.14-.07-.15-.08-.14-.07-.14-.08-.15-.08L53.8,142l-.14-.08a.61.61,0,0,1-.14-.07l-.15-.08a.61.61,0,0,1-.14-.07l-.15-.08-.14-.07-.14-.08-.15-.07-.14-.08-.14-.07-.15-.08-.14-.07-.14-.08-.15-.08-.14-.07a1.15,1.15,0,0,1-.14-.08l-.14-.07-.16-.08a2.13,2.13,0,0,1-1-.92c-.6-1.09-.39-2.31,2.44-6.26,1.17-1.65,2.69-3.58,4.17-5.34a23.45,23.45,0,0,1-4.17-5.47,28,28,0,0,1-2.45-6.12A16.19,16.19,0,0,1,43,114.62l-7.17-3.77a10.34,10.34,0,0,1-4.24-4.15,14.26,14.26,0,0,1,.06-14,26.14,26.14,0,0,1,10.7-10.43,34.07,34.07,0,0,1,4.81-2.17c.56-.21,1.14-.4,1.72-.58a61.23,61.23,0,0,1,15.26-2.34A44.6,44.6,0,0,1,77,66.66a17.07,17.07,0,0,1,2.57-1.2l.56-.19a6,6,0,0,1,5.1.28l.27.14.14.08s1,.49,1,.52l.14.08,1.57.83.15.07,1.71.91a.51.51,0,0,1,.15.07l.86.45.14.08.86.45a.65.65,0,0,1,.16.09,4.85,4.85,0,0,1,1.94,2c1.91,3.46.77,7.6-1.72,13.12l1.81,1,.15.08a2.63,2.63,0,0,1,1.19,1,2.3,2.3,0,0,1-.91,3.13,2,2,0,0,1-.37.17l-.11,0a3.19,3.19,0,0,1-2.25-.3,18,18,0,0,0-1.77-.65C84.38,100.64,71.9,109,64.89,113a21.29,21.29,0,0,0,.93,6.19,66.53,66.53,0,0,1,10.47-7.63,36,36,0,0,1,5-2.3c.49-.18,1-.34,1.47-.5,4.86-1.51,9.42-1.62,12.81-.36l-.13-.07-.14-.08a.61.61,0,0,1-.14-.07l-.12-.06a2.14,2.14,0,0,1-1-.94c-.33-.58-.64-1.14,1.4-7.69,1.81-5.68,5-10.14,8.81-12.24a6.72,6.72,0,0,1,1-.45l.29-.1a5.87,5.87,0,0,1,4.62.45l.72.38,1,.53h0l1.15.6,1.58.83,1.29.68h0s.47.25.53.27l.3-1.42c1.22-5.87,2.7-10.14,6-11.93a5.4,5.4,0,0,1,.74-.33l.21-.08a4.15,4.15,0,0,1,3.24.3l.73.38L130,78.55c1.5-4.64,2.94-7.14,4.66-8.09a4.91,4.91,0,0,1,.62-.28l.19-.07a4.3,4.3,0,0,1,3.38.4l7,3.69.29-1.29c.67-2.84,1.62-7.54,2.28-12.29l-.06,0-.15-.08-.15-.08-.14-.07-.14-.08-.15-.08-.14-.07-.14-.08-.15-.07a2.35,2.35,0,0,1-.26-4l1.87-1,.38-8.27a.25.25,0,0,1,.12-.19l7.34-4.69,0,0h0a.25.25,0,0,1,.19,0l.06,0a.16.16,0,0,1,.09,0,.12.12,0,0,1,0,0,.13.13,0,0,1,.08,0l0,0a.2.2,0,0,1,.11,0,.17.17,0,0,1,.06.06l.09,0a.12.12,0,0,1,.05.05l.08,0s0,0,0,0a.2.2,0,0,1,.11,0,.1.1,0,0,1,.06.05l.09,0,.06.06.07,0,0,0,.11,0a.1.1,0,0,1,.05,0,.19.19,0,0,1,.1,0,.46.46,0,0,1,.07.07l.06,0,0,0,.11,0s0,0,0,0a.19.19,0,0,1,.1,0l.06.05.08,0,.05,0,.09,0,0,0,.1,0,.06.06a.13.13,0,0,1,.08,0l.05,0,.09,0,.06,0a.11.11,0,0,1,.07,0l.06,0a.19.19,0,0,1,.1,0,.12.12,0,0,1,0,0l.09,0,.06,0,.07,0,.06,0,.1,0a.1.1,0,0,1,.05,0l.09,0,.06.05.07,0,0,0a.28.28,0,0,1,.12,0l.06,0a.13.13,0,0,1,.08,0l.06,0a.11.11,0,0,1,.07,0l0,0a.27.27,0,0,1,.12,0l.06,0,.08,0,.06,0,.07,0,0,0a.19.19,0,0,1,.1,0l.06,0,.09,0a.23.23,0,0,1,.07.07l.06,0,0,0a.21.21,0,0,1,.11,0l.06,0a.16.16,0,0,1,.09,0l.07.06.06,0,0,0a.2.2,0,0,1,.11,0l.06,0,.09,0a.13.13,0,0,1,.07.06l.06,0,0,0,.11,0,.05.05.08,0,.05,0a.29.29,0,0,1,.1,0l.06.05a.16.16,0,0,1,.09,0,.12.12,0,0,1,0,0,.13.13,0,0,1,.08,0,.1.1,0,0,1,.05,0,.17.17,0,0,1,.1,0l.06,0,.09,0a.1.1,0,0,1,0,0l.08,0,0,0,.1,0,.06,0,.09,0,.05,0,.08,0a.25.25,0,0,1,.12.23l-.2,2.77,0,0,.14.07.15.08.14.07.14.08.15.07.14.08.15.07.14.08.14.07.15.08.14.08.14.07.15.08.14.07.14.07.14.08.15.08.14.07.14.08.15.07.13.07.15.08.15.08.14.07.14.08.14.07.15.08.14.08.15.07.14.07.14.08.14.07.15.08.14.08.14.07.15.08.07,0c.32-.22.64-.41,1-.59a7.78,7.78,0,0,1,.84-.38l.24-.08a4.58,4.58,0,0,1,3.71.38h0a3.45,3.45,0,0,1,1.76-2.95L183.06,44l0,0h0a.26.26,0,0,1,.21,0l0,0,.1,0,0,0,.1,0,0,0a.21.21,0,0,1,.1,0l0,0a.21.21,0,0,1,.1,0,.12.12,0,0,1,.05.05.18.18,0,0,1,.1,0l0,0,.11,0,0,0a.24.24,0,0,1,.1.05.1.1,0,0,1,.05,0,.19.19,0,0,1,.09,0l0,0a.25.25,0,0,1,.11,0l0,0a.21.21,0,0,1,.1,0,.12.12,0,0,1,.05,0l.1,0,0,0a.31.31,0,0,1,.12,0l0,0a.18.18,0,0,1,.09,0l0,0a.21.21,0,0,1,.1,0l0,0a.19.19,0,0,1,.12,0l0,0,.09,0,0,0,.09,0,0,0,.12,0a.39.39,0,0,1,.08.1l0,0a.19.19,0,0,1,.16,0l0,0a.21.21,0,0,1,.11,0,.08.08,0,0,1,0,0,.18.18,0,0,1,.1,0l0,0,.1,0,0,0a.22.22,0,0,1,.11,0,.18.18,0,0,1,.07.08l0,0a.24.24,0,0,1,.16,0l0,0,.11,0,.05,0,.09,0,0,0a.22.22,0,0,1,.11,0s0,0,0,0h.06a16.6,16.6,0,0,1,7.34-9,10.63,10.63,0,0,1,1.47-.67l.4-.13a5.84,5.84,0,0,1,4.62.27l3.78,2c.4-1.84,1.23-5.93,1.85-10.39l-.07,0-.13-.06-.16-.09-.14-.07-.13-.07-.16-.08-.14-.07-.13-.08-.15-.07a2.37,2.37,0,0,1-1-1,2.31,2.31,0,0,1,.79-3l1.86-1,.39-8.27a.21.21,0,0,1,.11-.19l7.34-4.7.05,0m-159.73,80A43.11,43.11,0,0,0,51,91.54c-10.18,5.62-9.05,11.27-7.47,14.13a19,19,0,0,0,6.22-.44,45,45,0,0,1,5.81-15.87m14.26,4.91a38.58,38.58,0,0,0,6.82-8.11c-.73,0-1.45-.06-2.15-.07a93.45,93.45,0,0,0-4.67,8.18M201.41,53.43a22.72,22.72,0,0,0,1.05-3.08q.33-1.24.6-2.31l-.34-.18a17.36,17.36,0,0,0-1.31,5.57M83.61,128.34a28.84,28.84,0,0,0,4-1.82c3.92-2.16,7.4-6.12,8.27-9.36-.75.17-1.54.38-2.36.64-.59.18-1.19.39-1.81.61a55.84,55.84,0,0,0-18.4,11.22,21.39,21.39,0,0,0,9.15-.9q.59-.18,1.17-.39M214.8,8a1.54,1.54,0,0,0-.34.17l-7.35,4.69a1.72,1.72,0,0,0-.79,1.39L206,21.64l-1.13.62a3.83,3.83,0,0,0,.29,6.68l.15.08.12.06c-.42,2.84-.91,5.48-1.28,7.32l-2-1.06a7.29,7.29,0,0,0-5.76-.39l-.47.16a11.4,11.4,0,0,0-1.68.77,17.48,17.48,0,0,0-7.37,8.27l-.06,0a1.41,1.41,0,0,0-.32-.17l-.06,0-.14-.07-.22-.11-.07,0-.16-.09-.23-.11a2,2,0,0,0-.25-.14l-.16-.07h0l-.28-.15-.15-.07h0l-.26-.15-.12-.06-.1-.05-.21-.11a1.7,1.7,0,0,0-1.36-.14h-.08a2.1,2.1,0,0,0-.3.15l-6.18,3.76a4.94,4.94,0,0,0-2,2.24,6.2,6.2,0,0,0-3.13.17l-.31.1a7.08,7.08,0,0,0-1,.48l-.29.17,0,0-.16-.08-.13-.07-.15-.08-.14-.07-.15-.08-.14-.07-.15-.08-.13-.07-.14-.07-.16-.09-.13-.07-.14-.07-.16-.08-.13-.07-.14-.08L167,48.4l-.14-.07-.14-.07-.15-.08-.14-.07-.14-.08L166.1,48l-.14-.07-.14-.07s-.11-.06-.15-.09h0l.13-1.81a1.72,1.72,0,0,0-.85-1.61l-.16-.09-.11-.05h0l-.2-.1-.07,0h0l-.15-.08-.2-.1-.07,0h0l-.16-.09-.19-.1-.07,0h0l-.21-.11-.08-.05-.19-.1-.19-.09,0,0-.18-.09-.19-.1-.06,0-.18-.1-.22-.1,0,0-.1,0-.07,0-.24-.12h0l-.1,0-.07,0a1.08,1.08,0,0,0-.24-.12h0l-.15-.08a1.24,1.24,0,0,0-.2-.1l-.06,0h0L160.5,42l-.2-.1-.06,0,0,0-.18-.09,0,0-.07,0-.21-.11-.11,0h0l-.09-.06-.17-.09-.19-.09-.06,0-.18-.09-.21-.1,0,0-.1-.06-.07,0a1.15,1.15,0,0,0-.25-.12h0l-.1-.05-.07,0a1.15,1.15,0,0,0-.25-.12h0l-.13-.07,0,0a1.71,1.71,0,0,0-1.38-.15h-.08a1.8,1.8,0,0,0-.34.17l-7.35,4.69a1.72,1.72,0,0,0-.79,1.38L147.33,54l-1.14.63a3.82,3.82,0,0,0-1.36,5,3.76,3.76,0,0,0,1.65,1.63l.15.07.14.08h0c-.6,4-1.37,7.92-2,10.53l-5.29-2.78a5.67,5.67,0,0,0-4.52-.51l-.26.09a5.61,5.61,0,0,0-.83.38c-1.87,1-3.34,3.24-4.79,7.26l-.82-.4v0l-.75-.4a5.61,5.61,0,0,0-4.35-.38l-.28.1a6.18,6.18,0,0,0-1,.43c-3.64,2-5.29,6.42-6.58,12.43l0,0h0l-1.32-.7-.25-.13,0,0-1.13-.59h0l-1-.54-.71-.37h0a7.29,7.29,0,0,0-5.76-.56l-.36.12a8.58,8.58,0,0,0-1.2.55C99.43,88.18,96,93,94.05,99c-1.22,3.91-1.68,5.89-1.7,7.11a25.5,25.5,0,0,0-10,1.19c-.51.16-1,.33-1.53.52a36.25,36.25,0,0,0-5.25,2.4,61.51,61.51,0,0,0-8.86,6.23,17.15,17.15,0,0,1-.33-2.63c7-4,18.55-12,24.69-23.1l.48.19a4.55,4.55,0,0,0,3.26.35l.17-.06a3.47,3.47,0,0,0,.59-.27,3.76,3.76,0,0,0,1.5-5.12,4,4,0,0,0-1.81-1.68L95.09,84l-.55-.29c2.27-5.31,3.15-9.44,1.09-13.17A6.34,6.34,0,0,0,93.11,68l-.2-.11-.83-.43-.18-.1-.82-.43-.2-.1L89.23,66,89,65.86l-1.52-.8a.76.76,0,0,0-.18-.09c-.19-.11-.76-.41-1-.51l-.17-.09L86,64.24a7.59,7.59,0,0,0-6.26-.39q-.31.09-.63.21a19.87,19.87,0,0,0-2.78,1.29A46.58,46.58,0,0,0,63.44,75.77a61.63,61.63,0,0,0-15,2.37c-.6.19-1.21.39-1.79.61a35.38,35.38,0,0,0-5,2.26,27.7,27.7,0,0,0-11.3,11.06,15.63,15.63,0,0,0,0,15.35,11.79,11.79,0,0,0,4.84,4.75l7.18,3.77a16.9,16.9,0,0,0,6.76,2,28.92,28.92,0,0,0,2.29,5.43,25.26,25.26,0,0,0,3.47,4.83c-1.22,1.48-2.42,3-3.38,4.39-2.62,3.67-3.67,5.78-2.54,7.85a3.74,3.74,0,0,0,1.58,1.52l.16.08.13.07.16.08.13.07.15.08.14.08.14.07.14.08.16.08.13.07.14.07.15.08.14.07.15.08.14.07.15.08.13.07.15.08.14.08.14.07.15.08.14.07.14.08.15.07.15.08.13.07.15.08.14.07.15.08.13.07.16.08.14.08.14.07.15.08.13.07.15.08.14.07.15.08.14.07.14.08.14.07.15.08.14.07.14.08.15.08.14.07.15.08.14.07.14.07.13.07a3.74,3.74,0,0,0,2.94.33l.16-.06a2.45,2.45,0,0,0,.52-.24,5.69,5.69,0,0,0,2-2.27,65.8,65.8,0,0,1,5.09-6.88c7.67,3.75,17.42,4.35,26.25,1.61.55-.17,1.1-.36,1.63-.55a35.23,35.23,0,0,0,4.83-2.19,20.61,20.61,0,0,0,7.75-7.91,13.41,13.41,0,0,0,1.8-7.66,7.12,7.12,0,0,0,3-.29l.34-.11a7.18,7.18,0,0,0,1.13-.52c3.44-1.9,5.77-5.16,7.1-10a13.46,13.46,0,0,0,1.41-1l.14,0a1.42,1.42,0,0,0,.23.14l.22.1.19.11.22.1a1.05,1.05,0,0,0,.21.12l.22.1a1.09,1.09,0,0,0,.23.14,1.88,1.88,0,0,0,.3.12h0l.05,0h0a1.61,1.61,0,0,0,.3.21l.21.08a1.7,1.7,0,0,0,.22.15l.21.08a1.14,1.14,0,0,0,.23.15,1,1,0,0,0,.21.09l.23.14.2.08.21.13.23.1.19.12a1,1,0,0,0,.22.09,1.2,1.2,0,0,0,.21.13,1.27,1.27,0,0,0,.32.13h0a1.77,1.77,0,0,0,1.3.11h0l0,0a1.69,1.69,0,0,0,.38-.19l7.25-4.9a1.7,1.7,0,0,0,.76-1.31l.05-.8a71.54,71.54,0,0,1,1.17-7.15c1.63.86,3.86,2,4.52,2.37h0l.48.26a6.15,6.15,0,0,0,4.89.55l.28-.1a6.63,6.63,0,0,0,.94-.43c2.07-1.14,3.61-3.66,5.17-8.54l1.89,1a6.31,6.31,0,0,0,.64.31,6.54,6.54,0,0,0,4.66.22l.35-.11a10.27,10.27,0,0,0,1-.43c2.57-1.42,4.39-4.23,6.15-9.55L173,83.2a7.23,7.23,0,0,0,5.56.5l.37-.13a8.19,8.19,0,0,0,1.25-.57c1.77-1,3.25-2.94,4.57-6.12l.11.05L185,77h0l.17.09.19.1a5.83,5.83,0,0,0,4.44.36l.31-.11a6.85,6.85,0,0,0,1.11-.51c2.38-1.31,4-4.14,5.67-9.92l2.3,1.2h0a8.34,8.34,0,0,0,6.37.59l.4-.14a9.09,9.09,0,0,0,1.35-.62c3.34-1.84,5.67-4.92,7.4-9.85l2,1a6.09,6.09,0,0,0,.63.3,6.49,6.49,0,0,0,4.66.23l.35-.12a9.14,9.14,0,0,0,1-.43c2.9-1.6,4.88-5.05,6.87-11.93,2.09-6.66,1.35-8,1.08-8.55a3.84,3.84,0,0,0-1.65-1.62l-.15-.09-.14-.07-.15-.07L229,36.8l-.14-.07-.15-.08-.13-.07-.15-.08-.16-.08-.12-.07-.15-.08-.15-.07-.14-.08-.13-.07-.17-.08-.12-.07-.14-.07-.16-.09-.14-.07-.14-.07-.15-.08-.14-.08-.14-.07-.14-.07-.14-.08-.16-.08-.13-.07L225.6,35l-.14-.07-.15-.08a.61.61,0,0,0-.14-.07l-.14-.08-.14-.07-.14-.08-.16-.08-.13-.07-.15-.08-.14-.07-.14-.07-.14-.08-.15-.08-.15-.07-.14-.08-.14-.07-.14-.08,0,0v0c.14-2,.27-3.76.34-5.13L230,24.91a3.68,3.68,0,0,0,1.79-2.23,3.79,3.79,0,0,0-.39-2.91,3.73,3.73,0,0,0-1.66-1.56l-.09-.05-.16-.08-.14-.07-.13-.07-.15-.08-.15-.08-.13-.07-.15-.08-.14-.07-.14-.08-.15-.07-.14-.08-.14-.07-.15-.08-.14-.08-.15-.07-.13-.07-.15-.08L227,16.8l-.13-.07-.15-.08-.14-.07-.15-.08-.14-.07-.15-.08-.13-.07-.16-.08-.14-.08-.14-.07-.13-.07-.16-.08-.14-.08-.13-.07-.16-.08-.14-.07-.14-.08-.14-.07-.15-.08,0,0,.13-1.79a1.72,1.72,0,0,0-.84-1.61l-.1-.06,0,0-.1,0,0,0-.26-.13h0l-.11-.05-.07,0-.25-.12h0l-.13-.07h0l-.15-.08h0l-.15-.07a.35.35,0,0,0-.12-.07l0,0-.22-.1,0,0a1.19,1.19,0,0,0-.22-.12l-.08,0-.18-.1-.18-.09-.06,0-.19-.09-.21-.11h0l0,0-.09,0,0,0-.25-.13h0l0,0-.09-.05L220,10l-.25-.11h0l-.09-.06-.07,0-.2-.1-.1-.05-.07,0-.05,0a1.23,1.23,0,0,0-.26-.12h0l-.1-.06-.07,0a1,1,0,0,0-.23-.11l0,0-.17-.09-.13-.07h0L218,9l-.2-.1-.08-.05-.18-.09-.17-.08-.08-.05a.91.91,0,0,0-.17-.09l-.2-.1h0l-.1-.06-.07,0-.24-.12h0l-.13-.07h0a1.76,1.76,0,0,0-1.4-.17h0l0,0ZM44.51,104.25c-1.67-3.93.81-7.86,7.23-11.41l.45-.24A44.41,44.41,0,0,0,48.47,104a17.68,17.68,0,0,1-4,.27Zm32.74,24a50.64,50.64,0,0,1,7.11-4.81,57.32,57.32,0,0,1,7.84-3.62l.92-.32a18.87,18.87,0,0,1-6.25,5.73,26.44,26.44,0,0,1-3.77,1.72c-.37.13-.74.26-1.1.37a21.67,21.67,0,0,1-4.75.93Z"/><path class="cls-3" d="M60.44,128.39c-5.32,5.77-7.6,10.22-8,10.43a.39.39,0,0,1-.51-.14c-.48-.86,4.12-7,7.57-10.9a21.23,21.23,0,0,1-5.14-6.19,24.89,24.89,0,0,1-3.12-12c-5.62,1.81-14.68,2.08-18-3.86-4.51-8.17,1.4-17.1,10-21.87,6.73-3.71,14.41-4.6,21.81-4.9A42.76,42.76,0,0,1,78,68.15c4-2.21,6.39-2,7.51.07,1.5,2.7.73,6.31-2.74,13.56,2.6,1,4,1.25,4.18,1.65a.44.44,0,0,1-.18.61c-.6.33-.9-.36-4.6-1.33C76.58,95,63.68,103.55,55.9,107.84c-.64,4.14,1.59,11,3.49,14.42a15.72,15.72,0,0,0,2.42,3.14c4.66-4.81,10.89-9.88,15.44-12.39,8.36-4.62,18.57-5.78,22.09.62,2.77,5-1.93,12.07-7.07,14.91C82.91,133.71,69.61,134.08,60.44,128.39ZM51.5,106.57C52.71,96.45,57.93,88,64.12,80.35A45.87,45.87,0,0,0,42.88,86c-6.39,3.53-12.15,9.46-8.19,16.65C37.46,107.62,45.48,108.44,51.5,106.57ZM80.74,82.26a49.6,49.6,0,0,0-14.5-2c-4.85,7.58-9.3,15.88-10.24,24.92a19.11,19.11,0,0,0,4.36-2.06C68.67,98.56,76.79,91.76,80.74,82.26ZM75.5,116.55a64,64,0,0,0-12.92,9.8c6.89,6.69,17.19,6.51,26,1.67,6.2-3.42,11.16-10.64,8.87-14.78C94.79,108.49,84.4,111.64,75.5,116.55Zm2.62-47.46A35.12,35.12,0,0,0,67.23,79a61.46,61.46,0,0,1,13.92,2.3c1.36-2.82,3.51-8.9,1.91-11.8C82.18,67.88,81,67.53,78.12,69.09Z"/><path class="cls-3" d="M112.36,101.45a1.63,1.63,0,0,0,.8-.26,9.75,9.75,0,0,0,4.35-6.62c.31-1.46.3-1.63.5-1.74a.33.33,0,0,1,.51.15c.07.13.08.47-.56,2.89a10.36,10.36,0,0,1-5,6.44,3.11,3.11,0,0,1-.89.4c-.77,3.44-2.17,7.3-5.86,9.34-2.63,1.46-5.36-.06-7.32-3.61a18.51,18.51,0,0,1-1.56-3.61c-.15-.27-.29-.36-.42-.29-.53.29-.41,1.6-.61,1.71a.41.41,0,0,1-.57-.11c-.19-.33.78-3.87,1.53-6.26,1.82-5.74,5-9.54,7.94-11.18,2.5-1.38,5-.27,6.46,2.36S113.25,98.39,112.36,101.45Zm-6.49-12.07c-4.61,2.55-5.91,14.7-2.85,20.24,1,1.85,2.13,2,3.06,1.49,5.21-2.87,7-14,3.73-20C108.94,89.49,107.51,88.48,105.87,89.38Z"/><path class="cls-3" d="M123.94,102.29c-.1-3.13,2.53-20.32,1.41-22.37a1.07,1.07,0,0,0-1.54-.44c-1.84,1-2.86,3.39-4.18,8.93-1.25,5.07-1,5.3-1.3,5.45s-.4,0-.55-.22a38,38,0,0,1,.83-4.41c1.14-5.44,2.46-9.27,5-10.69,1.71-.94,3.13-.09,4.22,1.89,1.46,2.64.83,7.88.43,10.6l.21.06c1.22-3.86,3.71-17.27,7.07-19.13,1.66-.91,3.32.4,4.09,1.79,1.23,2.24,1,4.88.69,7-.75,5.66-.89,8.83-.31,9.89a1.37,1.37,0,0,0,1.78.74c1.52-.84,3-4.74,4.08-9.14,1.4-5.41,1-5.46,1.42-5.68a.32.32,0,0,1,.44.18c.19.33-1.1,5.78-1.49,7.11-1.3,4.5-2.63,7.55-4.14,8.39-2,1.09-3.92-.24-5.23-2.62-2.92-5.27,1.19-14.67.2-16.45a.92.92,0,0,0-1.36-.29c-3.16,1.75-7.34,22.38-7.6,26.57Z"/><path class="cls-3" d="M151,47.43,155,44.91l-.64,9,7.7-4.25a.42.42,0,0,1,.55.21c.11.2.16.43-.11.58l-8.17,4.51c0,4.76-2.23,25.57-.56,28.6.36.66.94.77,1.8.3,2-1.09,3.34-4.08,4.66-8.68,1.55-5.15,1.36-6.43,1.69-6.61s.41,0,.55.22a33.87,33.87,0,0,1-1.34,6c-1.81,6.24-3.41,8.94-5.26,10A3.47,3.47,0,0,1,151,83.16c-2.07-3.76-1.61-8.23-.78-15.91l-.21-.07c-.41,2.21-.82,3.82-1.47,6.84a36.09,36.09,0,0,1-1,4.25c-.2.11-.37.12-.48-.08s0-.67.94-5a138.28,138.28,0,0,0,2.78-16.32l-2.38,1.31c-.26.14-.44,0-.54-.22a.53.53,0,0,1,0-.54l2.77-1.53Z"/><path class="cls-3" d="M181,47.32c-.61,3.26-1.78,19.21-.5,21.52.29.53.77.78,1.62.3,2-1.09,3.66-6.48,5-13.07.29-1.36.27-1.53.41-1.61a.48.48,0,0,1,.61.18c.07.13-.73,3.67-1.33,6.16-1.29,4.84-2.66,8.26-4.44,9.24S179,70.72,177,67.1c-.25-.47-.4-.9-.58-1.23-.89,3.07-2.51,8.87-5,10.25-3.37,1.85-5.83-.74-7.47-3.7a19.88,19.88,0,0,1-1.38-3.29c-.13.07-.16.35-.29.42s-.37-.06-.45-.19,0-.43.3-2c1.16-6.32,4.64-12.62,9.19-15.14,2-1.09,3.64-.11,4.62,1.67a6.87,6.87,0,0,1,.78,1.89l.21.06c.3-5.07-.3-5.86,1-6.69Zm-10.08,28c3.82-2.11,6.83-16.15,4.14-21-.73-1.32-2-2-3.36-1.25-5.34,3-6.08,16.26-3.46,21C168.93,75.31,169.86,75.91,170.92,75.33Z"/><path class="cls-3" d="M201.06,43.73A1.73,1.73,0,0,1,198.5,43c-.94-1.71,1.4-2.15.6-3.6-.29-.53-1.08-.86-2.14-.28-4,2.18-6.81,12.44-2.66,20,.95,1.71,2.28,2.09,4.19,1,2.31-1.27,4.59-4.77,5.82-9.4,1.52-5.66,1.32-6.32,1.53-6.43a.42.42,0,0,1,.61.17,22.77,22.77,0,0,1-.9,4.46c-1.65,6.84-3.78,10.43-7.08,12.25-4.09,2.26-7.47-1.21-9.21-4.38a11,11,0,0,1-.79-1.89.16.16,0,0,0-.2-.06c-.2.11-.19.45-.32.52a.37.37,0,0,1-.52-.15c-.06-.13-.08-.47.69-4.07,1.32-6.49,4-10.41,7.75-12.45,2.57-1.41,4.9-1.24,6.06.87C202.62,40.8,202.57,42.89,201.06,43.73Z"/><path class="cls-3" d="M209.68,15.07l3.94-2.52-.65,9,7.71-4.26a.44.44,0,0,1,.55.22.38.38,0,0,1-.11.58L213,22.55c0,4.75-2.23,25.57-.55,28.6.35.66.93.77,1.79.3,2-1.09,3.34-4.08,4.67-8.68,1.54-5.16,1.36-6.43,1.68-6.61s.41,0,.55.21a34.53,34.53,0,0,1-1.33,6c-1.81,6.24-3.42,8.93-5.26,10a3.46,3.46,0,0,1-4.89-1.52c-2.07-3.76-1.61-8.22-.78-15.91l-.21-.06c-.41,2.21-.82,3.81-1.47,6.84a34.3,34.3,0,0,1-1,4.25c-.19.11-.36.12-.47-.08s0-.68,1-5a141,141,0,0,0,2.77-16.33L207,25.82c-.27.15-.45,0-.55-.22a.53.53,0,0,1,0-.53l2.77-1.53Z"/></svg>