<svg id="Layer_1" data-name="Layer 1" xmlns="http://www.w3.org/2000/svg" viewBox="0 0 271.94 145.42"><defs><style>.cls-1{fill:#64395f;}</style></defs><title>Artboard 2</title><path class="cls-1" d="M58.41,124.23c-6.92-.67-14.75-1.43-21.45-4.8-7.46-3.77-12.25-10.64-12.19-17.49.05-4.88,2.92-9.51,7.69-12.4s10.21-3.27,14.55-1l-.43.84c-4-2.08-9.14-1.7-13.63,1S25.76,97.4,25.72,102c-.06,6.5,4.52,13,11.67,16.63,6.53,3.3,14.28,4,21.11,4.71Z"/><path class="cls-1" d="M81.82,118.18a4.63,4.63,0,0,1-3.66-.17c-3.06-1.41-5.23-5.57-6.15-8.71-2.69-9.17-5-18.56-7-27.92l.93-.2c1.94,9.34,4.29,18.71,7,27.85.93,3.18,3,6.93,5.63,8.12a3.75,3.75,0,0,0,3.27,0c2.36-1.06,3.28-4.1,2.73-9-.49-4.44-1-8.94-1.67-13.39-.66-4.65-1.45-9.1-4-12.54s-7.46-5.57-11.26-3.47l-.46-.82c4.31-2.38,9.73,0,12.48,3.73s3.5,8.2,4.17,13c.63,4.46,1.19,9,1.68,13.42.6,5.37-.51,8.73-3.28,10C82.08,118.08,82,118.14,81.82,118.18Z"/><polygon class="cls-1" points="126.25 106.54 91.79 74.05 102.81 105.7 101.92 106.02 89.63 70.72 124.12 103.23 110.49 63.55 111.38 63.24 126.25 106.54"/><path class="cls-1" d="M152.81,95.4l-.9.28a140.19,140.19,0,0,0-19.15-38.43l.77-.54A141,141,0,0,1,152.81,95.4Z"/><rect class="cls-1" x="117.4" y="57.56" width="25.15" height="0.95" transform="translate(-12.01 47.95) rotate(-20)"/><polygon class="cls-1" points="192.4 79.2 159.27 46.19 166.4 84.03 165.47 84.21 157.78 43.37 193.07 78.53 192.4 79.2"/><rect class="cls-1" x="165.14" y="72.21" width="22.19" height="0.95" transform="translate(-14.23 64.66) rotate(-20)"/><path class="cls-1" d="M213.51,72c-4.28,1.56-9.5,1.58-14.43,1.29-2-.12-4.73-.29-6.64-1.87s-2.6-4.27-3.09-7c-1.18-6.7-2.51-14.29-.64-21.41,1.77-6.74,7.55-13.64,15.16-13.79l0,.95c-7.14.13-12.58,6.68-14.27,13.08-1.82,6.92-.5,14.4.66,21,.46,2.58,1,5,2.76,6.46,1.55,1.29,3.68,1.51,6.1,1.65,7.6.46,15.91.16,20-5.54l.77.54A13,13,0,0,1,213.51,72Z"/><path class="cls-1" d="M241,58.57a183.84,183.84,0,0,0-21.23-31.48l.73-.61a185.14,185.14,0,0,1,21.34,31.64Z"/><path class="cls-1" d="M204.74,31.49l-.57-.75a74.17,74.17,0,0,1,24.05-12.12l.26.9A73.48,73.48,0,0,0,204.74,31.49Z"/><path class="cls-1" d="M192.63,117.22q-13.11,4.77-27.76,8.49a228.7,228.7,0,0,0-24.68,8.35c-11.17,4.27-22.72,8.68-34.8,10.38s-24.25.84-36.08,0c-6.92-.48-14.08-1-21.12-1-1.53,0-3.09,0-4.66,0-12.27.16-25,.32-33.65-7.36C1.56,128.78.23,116.78,0,106c-.11-6,0-12.43,2.5-18.31,2.72-6.35,8-11.31,12.72-15.34,24.92-21,56.85-33.11,85-43.78C124,19.61,150.89,9.43,178.1,4c30.12-6,57.18-5.32,80.41,1.9,2.94.91,6.25,2.1,8.37,4.61,1.88,2.24,2.51,5.13,3,8.14,2.42,13.77,4.51,34-5.25,50.7-6.25,10.71-16.63,18.54-25,24.18A214.39,214.39,0,0,1,192.63,117.22Zm-43.81,12.59c5.19-1.89,10.48-3.65,15.82-5,29.29-7.45,53.67-17.92,74.53-32,8.26-5.57,18.53-13.33,24.68-23.86,9.6-16.44,7.53-36.44,5.14-50.06-.5-2.88-1.1-5.64-2.84-7.71-1.95-2.31-5.11-3.44-7.92-4.31-23.08-7.17-50-7.8-80-1.87-27.13,5.37-54,15.54-77.67,24.5-28.1,10.65-60,22.71-84.75,43.63-4.68,4-9.82,8.81-12.46,15C1,93.79.86,100.07,1,106c.2,10.56,1.49,22.31,9.54,29.44,8.41,7.44,20.91,7.28,33,7.12,1.57,0,3.13,0,4.67,0,7.07,0,14.25.49,21.18,1,11.79.83,24,1.69,35.89,0s23.47-6.08,34.59-10.33C142.81,132.05,145.8,130.91,148.82,129.81Z"/></svg>